M48
;GenerationSoftware,Autodesk,EAGLE,9.3.0*%
;CreationDate,2020-01-23T20:52:09Z*%
FMAT,2
ICI,OFF
METRIC,TZ,000.000
T6C0.350
T5C0.800
T4C1.016
T3C2.997
T2C3.600
%
G90
M71
T2
X5080Y89860
X81280Y4130
X85090Y89860
X7620Y4130
T3
X46480Y16220
X41780Y13220
X41780Y19220
T4
X27500Y62200
X15230Y79730
X17770Y79730
X15740Y34610
X23050Y27610
X7360Y37810
X55170Y11710
X74480Y19910
X80790Y22610
X23000Y82000
X24500Y62200
X77540Y86000
X75000Y86000
X71540Y86000
X69000Y86000
X65540Y86000
X59540Y86000
X57000Y86000
X41900Y23800
X51000Y8000
X29000Y68300
X29000Y74000
X63000Y86000
T5
X56220Y52430
X58760Y52430
X61300Y52430
X66380Y52430
X68920Y52430
X71460Y52430
X74000Y52430
X76540Y52430
X79080Y52430
X81620Y52430
X84160Y52430
X63840Y52430
X51140Y52430
X51140Y42270
X81620Y39730
X84160Y37190
X81620Y37190
X79080Y37190
X76540Y37190
X74000Y37190
X71460Y37190
X68920Y37190
X66380Y37190
X63840Y37190
X58760Y37190
X56220Y37190
X53680Y37190
X51140Y37190
X51140Y39730
X51140Y44810
X51140Y47350
X53680Y52430
X51140Y49890
X61300Y37190
T6
X20594Y16170
X8600Y10127
X13383Y20766
X67475Y17342
X37500Y1394
X74200Y67800
X54400Y23500
X63000Y30100
X59600Y78900
X65600Y79100
X71500Y79000
X78000Y79000
X36700Y77909
X14996Y17753
X37000Y6600
X69700Y15926
X71900Y9400
X51800Y34500
X78000Y18000
X75000Y57000
X79400Y73400
X77900Y66000
X78000Y62000
X80000Y59000
X74000Y69000
X55600Y68500
X14700Y55300
X32000Y70479
X14800Y62200
X14900Y63100
X14700Y29200
X18000Y64000
X11000Y76000
X21100Y62300
X19300Y62400
X17700Y62400
X14800Y57400
X14800Y56400
X16600Y30200
X22500Y57262
X22500Y53700
X22300Y55200
X26661Y56491
X27100Y48800
X25700Y48800
X84200Y35400
X55600Y58900
X55700Y66400
X66600Y16300
X10300Y11500
X71000Y59000
X35600Y71900
X26500Y57400
X59600Y61400
X66300Y62600
X16500Y76900
X14400Y69800
X19200Y76900
X19200Y68100
X9400Y11500
X65600Y16200
X11200Y11500
X21800Y11300
X22800Y11300
X23800Y11300
X22100Y24600
X23100Y24600
X24100Y24600
X14100Y24600
X13100Y24600
X12100Y24600
X74100Y31900
X53500Y24100
X36500Y4900
X74000Y15600
X74100Y63600
X81200Y69800
X77800Y69800
X75700Y64700
X81300Y64800
X83300Y67300
X61300Y31700
X63900Y27900
X70000Y32358
X72500Y32400
X76000Y32000
X54900Y28000
X57300Y31400
X59400Y31900
X36600Y2200
X60100Y23600
X80700Y30600
X55300Y60500
X61900Y10200
X65600Y15300
X66600Y15300
X66600Y14300
X65600Y14300
X64600Y10100
X64600Y8900
X64500Y7600
X64500Y6400
X64500Y5100
X60800Y10200
X36700Y58400
X63000Y10200
X50300Y28000
X37200Y74900
X36900Y76400
X41800Y70000
X41800Y68300
X37900Y71200
X66300Y63900
X66100Y71900
X52900Y31900
M30