G04 EAGLE Gerber RS-274X export*
G75*
%MOMM*%
%FSLAX34Y34*%
%LPD*%
%INBottom Copper*%
%IPPOS*%
%AMOC8*
5,1,8,0,0,1.08239X$1,22.5*%
G01*
%ADD10C,4.318000*%
%ADD11C,1.879600*%
%ADD12C,1.308000*%
%ADD13C,5.842000*%
%ADD14C,6.200000*%
%ADD15R,2.200000X1.000000*%
%ADD16C,0.756400*%
%ADD17C,0.254000*%
%ADD18C,0.508000*%


D10*
X417800Y192200D03*
X417800Y132200D03*
X464800Y162200D03*
D11*
X807900Y226100D03*
X744800Y199100D03*
X551700Y117100D03*
X73600Y378100D03*
X230500Y276100D03*
X157400Y346100D03*
X177700Y797300D03*
X152300Y797300D03*
D12*
X841600Y524300D03*
X816200Y524300D03*
X790800Y524300D03*
X765400Y524300D03*
X740000Y524300D03*
X714600Y524300D03*
X689200Y524300D03*
X663800Y524300D03*
X638400Y524300D03*
X613000Y524300D03*
X587600Y524300D03*
X562200Y524300D03*
X536800Y524300D03*
X511400Y524300D03*
X511400Y498900D03*
X511400Y473500D03*
X511400Y448100D03*
X511400Y397300D03*
X511400Y371900D03*
X536800Y371900D03*
X562200Y371900D03*
X587600Y371900D03*
X613000Y371900D03*
X638400Y371900D03*
X663800Y371900D03*
X689200Y371900D03*
X714600Y371900D03*
X740000Y371900D03*
X765400Y371900D03*
X790800Y371900D03*
X816200Y371900D03*
X841600Y371900D03*
X816200Y397300D03*
X511400Y422700D03*
D13*
X50800Y898600D03*
X812800Y41300D03*
X850900Y898600D03*
X76200Y41300D03*
D11*
X290000Y740000D03*
X230000Y820000D03*
X290000Y683000D03*
X510000Y80000D03*
X419000Y238000D03*
X570000Y860000D03*
X595400Y860000D03*
X630000Y860000D03*
X655400Y860000D03*
X690000Y860000D03*
X715400Y860000D03*
X750000Y860000D03*
X775400Y860000D03*
D14*
X163000Y519000D03*
X163000Y630000D03*
D15*
X152000Y469000D03*
X152000Y680000D03*
X121000Y469000D03*
X121000Y680000D03*
D14*
X163000Y285000D03*
X163000Y396000D03*
D15*
X152000Y235000D03*
X152000Y446000D03*
X121000Y235000D03*
X121000Y446000D03*
D11*
X245000Y622000D03*
X275000Y622000D03*
D16*
X367000Y584000D03*
D17*
X490000Y520000D02*
X507100Y520000D01*
X508550Y521450D01*
X511400Y524300D01*
D16*
X710000Y590000D03*
D17*
X650000Y530000D01*
X650000Y515000D01*
X645000Y510000D01*
X520000Y510000D01*
X508550Y521450D01*
X426000Y584000D02*
X367000Y584000D01*
X426000Y584000D02*
X490000Y520000D01*
D16*
X356000Y719000D03*
X265000Y574000D03*
D17*
X356000Y665000D02*
X356000Y719000D01*
X356000Y665000D02*
X265000Y574000D01*
D16*
X596000Y614000D03*
D17*
X651000Y614000D01*
X663000Y626000D01*
D16*
X663000Y626000D03*
D18*
X163000Y396000D02*
X145100Y378100D01*
X73600Y378100D01*
D16*
X165000Y769000D03*
X144000Y698000D03*
X192000Y769000D03*
X192000Y681000D03*
X94000Y115000D03*
X103000Y115000D03*
X112000Y115000D03*
X218000Y113000D03*
X228000Y113000D03*
X238000Y113000D03*
X221000Y246000D03*
X231000Y246000D03*
X241000Y246000D03*
X141000Y246000D03*
X131000Y246000D03*
X121000Y246000D03*
X166000Y302000D03*
X320000Y704794D03*
X148000Y622000D03*
X149000Y631000D03*
X147000Y292000D03*
D18*
X157000Y302000D02*
X166000Y302000D01*
X157000Y302000D02*
X147000Y292000D01*
X154000Y285000D01*
X163000Y285000D01*
X148000Y622000D02*
X149000Y623000D01*
X149000Y631000D01*
X150000Y630000D01*
X163000Y630000D01*
D16*
X180000Y640000D03*
X110000Y760000D03*
X211000Y623000D03*
X193000Y624000D03*
X177000Y624000D03*
X148000Y574000D03*
X148000Y564000D03*
X147000Y553000D03*
X225000Y572624D03*
X225000Y537000D03*
X223000Y552000D03*
X266612Y564912D03*
X271000Y488000D03*
X257000Y488000D03*
X842000Y354000D03*
X556000Y589000D03*
X557000Y664000D03*
X666000Y163000D03*
X656000Y162000D03*
X656000Y153000D03*
X666000Y153000D03*
X666000Y143000D03*
X656000Y143000D03*
X646000Y101000D03*
X646000Y89000D03*
X645000Y76000D03*
X645000Y64000D03*
X645000Y51000D03*
X608000Y102000D03*
X619000Y102000D03*
X630000Y102000D03*
X503000Y280000D03*
X372000Y749000D03*
X369000Y764000D03*
X418000Y700000D03*
X418000Y683000D03*
X379000Y712000D03*
X663000Y639000D03*
X661000Y719000D03*
X529000Y319000D03*
X639000Y279000D03*
X535000Y241000D03*
X365000Y49000D03*
X740000Y156000D03*
X741000Y636000D03*
X812000Y698000D03*
X778000Y698000D03*
X757000Y647000D03*
X813000Y648000D03*
X833000Y673000D03*
X613000Y317000D03*
X741000Y319000D03*
X700000Y323576D03*
X725000Y324000D03*
X760000Y320000D03*
X549000Y280000D03*
X573000Y314000D03*
X594000Y319000D03*
X366000Y22000D03*
X601000Y236000D03*
X807000Y306000D03*
X553000Y605000D03*
X556000Y685000D03*
X367000Y779088D03*
X780000Y790000D03*
X715000Y790000D03*
X656000Y791000D03*
X596000Y789000D03*
X630000Y301000D03*
X544000Y235000D03*
X742000Y678000D03*
X375000Y13942D03*
D17*
X419000Y193400D02*
X419000Y238000D01*
X419000Y193400D02*
X417800Y192200D01*
D16*
X674751Y173424D03*
D17*
X793424Y173424D01*
X800000Y180000D01*
X870000Y470500D02*
X816200Y524300D01*
X800000Y216758D02*
X800000Y180000D01*
X800000Y216758D02*
X795708Y221050D01*
X795708Y231150D01*
X870000Y305442D01*
X870000Y470500D01*
D18*
X133829Y207664D02*
X79217Y207664D01*
D16*
X133829Y207664D03*
X86000Y101274D03*
D18*
X67000Y120274D02*
X67000Y195447D01*
X67000Y120274D02*
X86000Y101274D01*
X67000Y195447D02*
X79217Y207664D01*
D16*
X205944Y161702D03*
D17*
X165789Y161702D01*
X149965Y177526D01*
D16*
X149965Y177526D03*
D17*
X133829Y193662D01*
X133829Y207664D01*
D16*
X370000Y66000D03*
D17*
X370000Y240000D01*
X571600Y355900D02*
X587600Y371900D01*
X571600Y355900D02*
X485900Y355900D01*
X370000Y240000D01*
D18*
X203000Y746600D02*
X152300Y797300D01*
X203000Y303600D02*
X230500Y276100D01*
X203000Y523000D02*
X203000Y746600D01*
X203000Y523000D02*
X203000Y303600D01*
X199000Y519000D02*
X163000Y519000D01*
X199000Y519000D02*
X203000Y523000D01*
D16*
X697000Y159256D03*
D17*
X719000Y137256D01*
X719000Y94000D01*
D16*
X719000Y94000D03*
X518000Y345000D03*
D17*
X603000Y180000D02*
X780000Y180000D01*
D16*
X780000Y180000D03*
D17*
X518000Y265000D02*
X518000Y345000D01*
X518000Y265000D02*
X535424Y247576D01*
X537724Y247576D01*
X546724Y241576D02*
X550576Y237724D01*
X550576Y232424D01*
X603000Y180000D01*
X546724Y241576D02*
X543724Y241576D01*
X537724Y247576D01*
X714600Y371900D02*
X750000Y407300D01*
X750000Y570000D01*
D16*
X750000Y570000D03*
X794000Y734000D03*
D17*
X794000Y675000D01*
X779000Y660000D01*
D16*
X779000Y660000D03*
D17*
X780000Y411900D02*
X740000Y371900D01*
X780000Y411900D02*
X780000Y620000D01*
D16*
X780000Y620000D03*
X800000Y590000D03*
D17*
X800000Y528300D02*
X800134Y528166D01*
X800000Y528300D02*
X800000Y590000D01*
X800134Y406634D02*
X765400Y371900D01*
X800134Y406634D02*
X800134Y528166D01*
X730000Y412700D02*
X689200Y371900D01*
X730000Y412700D02*
X730000Y680000D01*
X740000Y690000D01*
D16*
X740000Y690000D03*
M02*
