G04 EAGLE Gerber RS-274X export*
G75*
%MOMM*%
%FSLAX34Y34*%
%LPD*%
%INEAGLE Copper Layer 15*%
%IPPOS*%
%AMOC8*
5,1,8,0,0,1.08239X$1,22.5*%
G01*
%ADD10C,4.013200*%
%ADD11C,1.524000*%
%ADD12C,1.308000*%
%ADD13C,4.616000*%
%ADD14C,0.756400*%

G36*
X885098Y10164D02*
X885098Y10164D01*
X885117Y10162D01*
X885219Y10184D01*
X885321Y10200D01*
X885338Y10210D01*
X885358Y10214D01*
X885447Y10267D01*
X885538Y10316D01*
X885552Y10330D01*
X885569Y10340D01*
X885636Y10419D01*
X885708Y10494D01*
X885716Y10512D01*
X885729Y10527D01*
X885768Y10623D01*
X885811Y10717D01*
X885813Y10737D01*
X885821Y10755D01*
X885839Y10922D01*
X885839Y929078D01*
X885836Y929098D01*
X885838Y929117D01*
X885816Y929219D01*
X885800Y929321D01*
X885790Y929338D01*
X885786Y929358D01*
X885733Y929447D01*
X885684Y929538D01*
X885670Y929552D01*
X885660Y929569D01*
X885581Y929636D01*
X885506Y929708D01*
X885488Y929716D01*
X885473Y929729D01*
X885377Y929768D01*
X885283Y929811D01*
X885263Y929813D01*
X885245Y929821D01*
X885078Y929839D01*
X360000Y929839D01*
X359980Y929836D01*
X359961Y929838D01*
X359859Y929816D01*
X359757Y929800D01*
X359740Y929790D01*
X359720Y929786D01*
X359631Y929733D01*
X359540Y929684D01*
X359526Y929670D01*
X359509Y929660D01*
X359442Y929581D01*
X359371Y929506D01*
X359362Y929488D01*
X359349Y929473D01*
X359310Y929377D01*
X359267Y929283D01*
X359265Y929263D01*
X359257Y929245D01*
X359239Y929078D01*
X359239Y723581D01*
X359254Y723491D01*
X359261Y723400D01*
X359273Y723371D01*
X359279Y723339D01*
X359321Y723258D01*
X359357Y723174D01*
X359383Y723142D01*
X359394Y723121D01*
X359417Y723099D01*
X359462Y723043D01*
X361307Y721198D01*
X361307Y716802D01*
X359462Y714957D01*
X359409Y714883D01*
X359349Y714813D01*
X359337Y714783D01*
X359318Y714757D01*
X359291Y714670D01*
X359257Y714585D01*
X359253Y714544D01*
X359246Y714522D01*
X359247Y714490D01*
X359239Y714419D01*
X359239Y52581D01*
X359250Y52511D01*
X359252Y52439D01*
X359270Y52390D01*
X359279Y52339D01*
X359312Y52275D01*
X359337Y52208D01*
X359369Y52167D01*
X359394Y52121D01*
X359446Y52072D01*
X359490Y52016D01*
X359534Y51988D01*
X359572Y51952D01*
X359637Y51922D01*
X359697Y51883D01*
X359748Y51870D01*
X359795Y51848D01*
X359866Y51840D01*
X359936Y51823D01*
X359988Y51827D01*
X360039Y51821D01*
X360110Y51836D01*
X360181Y51842D01*
X360229Y51862D01*
X360280Y51873D01*
X360341Y51910D01*
X360407Y51938D01*
X360463Y51983D01*
X360491Y52000D01*
X360506Y52017D01*
X360538Y52043D01*
X362802Y54307D01*
X367198Y54307D01*
X370307Y51198D01*
X370307Y46802D01*
X367198Y43693D01*
X362802Y43693D01*
X360538Y45957D01*
X360480Y45999D01*
X360428Y46048D01*
X360381Y46070D01*
X360339Y46100D01*
X360270Y46121D01*
X360205Y46152D01*
X360153Y46157D01*
X360103Y46173D01*
X360032Y46171D01*
X359961Y46179D01*
X359910Y46168D01*
X359858Y46166D01*
X359790Y46142D01*
X359720Y46127D01*
X359676Y46100D01*
X359627Y46082D01*
X359571Y46037D01*
X359509Y46000D01*
X359475Y45961D01*
X359435Y45928D01*
X359396Y45868D01*
X359349Y45813D01*
X359330Y45765D01*
X359302Y45721D01*
X359284Y45652D01*
X359257Y45585D01*
X359249Y45514D01*
X359241Y45483D01*
X359243Y45460D01*
X359239Y45419D01*
X359239Y24581D01*
X359250Y24511D01*
X359252Y24439D01*
X359270Y24390D01*
X359279Y24339D01*
X359312Y24275D01*
X359337Y24208D01*
X359369Y24167D01*
X359394Y24121D01*
X359446Y24072D01*
X359490Y24016D01*
X359534Y23988D01*
X359572Y23952D01*
X359637Y23922D01*
X359697Y23883D01*
X359748Y23870D01*
X359795Y23848D01*
X359866Y23840D01*
X359936Y23823D01*
X359988Y23827D01*
X360039Y23821D01*
X360110Y23836D01*
X360181Y23842D01*
X360229Y23862D01*
X360280Y23873D01*
X360341Y23910D01*
X360407Y23938D01*
X360463Y23983D01*
X360491Y24000D01*
X360506Y24017D01*
X360538Y24043D01*
X363802Y27307D01*
X368198Y27307D01*
X371307Y24198D01*
X371307Y19802D01*
X368198Y16693D01*
X363802Y16693D01*
X360538Y19957D01*
X360480Y19999D01*
X360428Y20048D01*
X360381Y20070D01*
X360339Y20100D01*
X360270Y20121D01*
X360205Y20152D01*
X360153Y20157D01*
X360103Y20173D01*
X360032Y20171D01*
X359961Y20179D01*
X359910Y20168D01*
X359858Y20166D01*
X359790Y20142D01*
X359720Y20127D01*
X359676Y20100D01*
X359627Y20082D01*
X359571Y20037D01*
X359509Y20000D01*
X359475Y19961D01*
X359435Y19928D01*
X359396Y19868D01*
X359349Y19813D01*
X359330Y19765D01*
X359302Y19721D01*
X359284Y19652D01*
X359257Y19585D01*
X359249Y19514D01*
X359241Y19483D01*
X359243Y19460D01*
X359239Y19419D01*
X359239Y10922D01*
X359242Y10902D01*
X359240Y10883D01*
X359262Y10781D01*
X359279Y10679D01*
X359288Y10662D01*
X359292Y10642D01*
X359345Y10553D01*
X359394Y10462D01*
X359408Y10448D01*
X359418Y10431D01*
X359497Y10364D01*
X359572Y10292D01*
X359590Y10284D01*
X359605Y10271D01*
X359701Y10232D01*
X359795Y10189D01*
X359815Y10187D01*
X359833Y10179D01*
X360000Y10161D01*
X885078Y10161D01*
X885098Y10164D01*
G37*
%LPC*%
G36*
X846006Y873995D02*
X846006Y873995D01*
X836963Y877741D01*
X830041Y884663D01*
X826295Y893706D01*
X826295Y903494D01*
X830041Y912537D01*
X836963Y919459D01*
X846006Y923205D01*
X855794Y923205D01*
X864837Y919459D01*
X871759Y912537D01*
X875505Y903494D01*
X875505Y893706D01*
X871759Y884663D01*
X864837Y877741D01*
X855794Y873995D01*
X846006Y873995D01*
G37*
%LPD*%
%LPC*%
G36*
X807906Y16695D02*
X807906Y16695D01*
X798863Y20441D01*
X791941Y27363D01*
X788195Y36406D01*
X788195Y46194D01*
X791941Y55237D01*
X798863Y62159D01*
X807906Y65905D01*
X817694Y65905D01*
X826737Y62159D01*
X833659Y55237D01*
X837405Y46194D01*
X837405Y36406D01*
X833659Y27363D01*
X826737Y20441D01*
X817694Y16695D01*
X807906Y16695D01*
G37*
%LPD*%
%LPC*%
G36*
X460505Y140609D02*
X460505Y140609D01*
X452570Y143896D01*
X446496Y149970D01*
X443209Y157905D01*
X443209Y166495D01*
X446496Y174430D01*
X452570Y180504D01*
X460505Y183791D01*
X469095Y183791D01*
X477030Y180504D01*
X483104Y174430D01*
X486391Y166495D01*
X486391Y157905D01*
X483104Y149970D01*
X477030Y143896D01*
X469095Y140609D01*
X460505Y140609D01*
G37*
%LPD*%
%LPC*%
G36*
X413505Y170609D02*
X413505Y170609D01*
X405570Y173896D01*
X399496Y179970D01*
X396209Y187905D01*
X396209Y196495D01*
X399496Y204430D01*
X405570Y210504D01*
X413505Y213791D01*
X422095Y213791D01*
X430030Y210504D01*
X436104Y204430D01*
X439391Y196495D01*
X439391Y187905D01*
X436104Y179970D01*
X430030Y173896D01*
X422095Y170609D01*
X413505Y170609D01*
G37*
%LPD*%
%LPC*%
G36*
X413505Y110609D02*
X413505Y110609D01*
X405570Y113896D01*
X399496Y119970D01*
X396209Y127905D01*
X396209Y136495D01*
X399496Y144430D01*
X405570Y150504D01*
X413505Y153791D01*
X422095Y153791D01*
X430030Y150504D01*
X436104Y144430D01*
X439391Y136495D01*
X439391Y127905D01*
X436104Y119970D01*
X430030Y113896D01*
X422095Y110609D01*
X413505Y110609D01*
G37*
%LPD*%
%LPC*%
G36*
X653802Y137693D02*
X653802Y137693D01*
X650693Y140802D01*
X650693Y145198D01*
X652957Y147462D01*
X652968Y147478D01*
X652984Y147490D01*
X653040Y147578D01*
X653100Y147661D01*
X653106Y147680D01*
X653117Y147697D01*
X653142Y147798D01*
X653173Y147897D01*
X653172Y147916D01*
X653177Y147936D01*
X653169Y148039D01*
X653166Y148142D01*
X653160Y148161D01*
X653158Y148181D01*
X653118Y148276D01*
X653082Y148373D01*
X653069Y148389D01*
X653062Y148407D01*
X652957Y148538D01*
X650693Y150802D01*
X650693Y155198D01*
X652457Y156962D01*
X652468Y156978D01*
X652484Y156990D01*
X652540Y157078D01*
X652600Y157161D01*
X652606Y157180D01*
X652617Y157197D01*
X652642Y157298D01*
X652673Y157397D01*
X652672Y157416D01*
X652677Y157436D01*
X652669Y157539D01*
X652666Y157642D01*
X652660Y157661D01*
X652658Y157681D01*
X652618Y157776D01*
X652582Y157873D01*
X652569Y157889D01*
X652562Y157907D01*
X652457Y158038D01*
X650693Y159802D01*
X650693Y164198D01*
X653802Y167307D01*
X658198Y167307D01*
X659962Y165543D01*
X659978Y165532D01*
X659990Y165516D01*
X660078Y165460D01*
X660161Y165400D01*
X660180Y165394D01*
X660197Y165383D01*
X660298Y165358D01*
X660397Y165327D01*
X660416Y165328D01*
X660436Y165323D01*
X660539Y165331D01*
X660642Y165334D01*
X660661Y165340D01*
X660681Y165342D01*
X660776Y165382D01*
X660873Y165418D01*
X660889Y165431D01*
X660907Y165438D01*
X661038Y165543D01*
X663802Y168307D01*
X668198Y168307D01*
X671307Y165198D01*
X671307Y160802D01*
X669043Y158538D01*
X669032Y158522D01*
X669016Y158510D01*
X668960Y158422D01*
X668900Y158339D01*
X668894Y158320D01*
X668883Y158303D01*
X668858Y158202D01*
X668827Y158103D01*
X668828Y158084D01*
X668823Y158064D01*
X668831Y157961D01*
X668834Y157858D01*
X668840Y157839D01*
X668842Y157819D01*
X668882Y157724D01*
X668918Y157627D01*
X668931Y157611D01*
X668938Y157593D01*
X669043Y157462D01*
X671307Y155198D01*
X671307Y150802D01*
X669043Y148538D01*
X669032Y148522D01*
X669016Y148510D01*
X668960Y148422D01*
X668900Y148339D01*
X668894Y148320D01*
X668883Y148303D01*
X668858Y148202D01*
X668827Y148103D01*
X668828Y148084D01*
X668823Y148064D01*
X668831Y147961D01*
X668834Y147858D01*
X668840Y147839D01*
X668842Y147819D01*
X668882Y147724D01*
X668918Y147627D01*
X668931Y147611D01*
X668938Y147593D01*
X669043Y147462D01*
X671307Y145198D01*
X671307Y140802D01*
X668198Y137693D01*
X663802Y137693D01*
X661538Y139957D01*
X661522Y139968D01*
X661510Y139984D01*
X661422Y140040D01*
X661339Y140100D01*
X661320Y140106D01*
X661303Y140117D01*
X661202Y140142D01*
X661103Y140173D01*
X661084Y140172D01*
X661064Y140177D01*
X660961Y140169D01*
X660858Y140166D01*
X660839Y140160D01*
X660819Y140158D01*
X660724Y140118D01*
X660627Y140082D01*
X660611Y140069D01*
X660593Y140062D01*
X660462Y139957D01*
X658198Y137693D01*
X653802Y137693D01*
G37*
%LPD*%
%LPC*%
G36*
X605802Y96693D02*
X605802Y96693D01*
X602693Y99802D01*
X602693Y104198D01*
X605802Y107307D01*
X610198Y107307D01*
X612962Y104543D01*
X612978Y104532D01*
X612990Y104516D01*
X613078Y104460D01*
X613161Y104400D01*
X613180Y104394D01*
X613197Y104383D01*
X613298Y104358D01*
X613397Y104327D01*
X613416Y104328D01*
X613436Y104323D01*
X613539Y104331D01*
X613642Y104334D01*
X613661Y104340D01*
X613681Y104342D01*
X613776Y104382D01*
X613873Y104418D01*
X613889Y104431D01*
X613907Y104438D01*
X614038Y104543D01*
X616802Y107307D01*
X621198Y107307D01*
X623962Y104543D01*
X623978Y104532D01*
X623990Y104516D01*
X624078Y104460D01*
X624161Y104400D01*
X624180Y104394D01*
X624197Y104383D01*
X624298Y104358D01*
X624397Y104327D01*
X624416Y104328D01*
X624436Y104323D01*
X624539Y104331D01*
X624642Y104334D01*
X624661Y104340D01*
X624681Y104342D01*
X624776Y104382D01*
X624873Y104418D01*
X624889Y104431D01*
X624907Y104438D01*
X625038Y104543D01*
X627802Y107307D01*
X632198Y107307D01*
X635307Y104198D01*
X635307Y99802D01*
X632198Y96693D01*
X627802Y96693D01*
X625038Y99457D01*
X625022Y99468D01*
X625010Y99484D01*
X624922Y99540D01*
X624839Y99600D01*
X624820Y99606D01*
X624803Y99617D01*
X624702Y99642D01*
X624603Y99673D01*
X624584Y99672D01*
X624564Y99677D01*
X624461Y99669D01*
X624358Y99666D01*
X624339Y99660D01*
X624319Y99658D01*
X624224Y99618D01*
X624127Y99582D01*
X624111Y99569D01*
X624093Y99562D01*
X623962Y99457D01*
X621198Y96693D01*
X616802Y96693D01*
X614038Y99457D01*
X614022Y99468D01*
X614010Y99484D01*
X613922Y99540D01*
X613839Y99600D01*
X613820Y99606D01*
X613803Y99617D01*
X613702Y99642D01*
X613603Y99673D01*
X613584Y99672D01*
X613564Y99677D01*
X613461Y99669D01*
X613358Y99666D01*
X613339Y99660D01*
X613319Y99658D01*
X613224Y99618D01*
X613127Y99582D01*
X613111Y99569D01*
X613093Y99562D01*
X612962Y99457D01*
X610198Y96693D01*
X605802Y96693D01*
G37*
%LPD*%
%LPC*%
G36*
X628181Y850855D02*
X628181Y850855D01*
X624820Y852247D01*
X622247Y854820D01*
X620855Y858181D01*
X620855Y861819D01*
X622247Y865180D01*
X624820Y867753D01*
X628181Y869145D01*
X631819Y869145D01*
X635180Y867753D01*
X637753Y865180D01*
X639145Y861819D01*
X639145Y858181D01*
X637753Y854820D01*
X635180Y852247D01*
X631819Y850855D01*
X628181Y850855D01*
G37*
%LPD*%
%LPC*%
G36*
X568181Y850855D02*
X568181Y850855D01*
X564820Y852247D01*
X562247Y854820D01*
X560855Y858181D01*
X560855Y861819D01*
X562247Y865180D01*
X564820Y867753D01*
X568181Y869145D01*
X571819Y869145D01*
X575180Y867753D01*
X577753Y865180D01*
X579145Y861819D01*
X579145Y858181D01*
X577753Y854820D01*
X575180Y852247D01*
X571819Y850855D01*
X568181Y850855D01*
G37*
%LPD*%
%LPC*%
G36*
X417181Y228855D02*
X417181Y228855D01*
X413820Y230247D01*
X411247Y232820D01*
X409855Y236181D01*
X409855Y239819D01*
X411247Y243180D01*
X413820Y245753D01*
X417181Y247145D01*
X420819Y247145D01*
X424180Y245753D01*
X426753Y243180D01*
X428145Y239819D01*
X428145Y236181D01*
X426753Y232820D01*
X424180Y230247D01*
X420819Y228855D01*
X417181Y228855D01*
G37*
%LPD*%
%LPC*%
G36*
X773581Y850855D02*
X773581Y850855D01*
X770220Y852247D01*
X767647Y854820D01*
X766255Y858181D01*
X766255Y861819D01*
X767647Y865180D01*
X770220Y867753D01*
X773581Y869145D01*
X777219Y869145D01*
X780580Y867753D01*
X783153Y865180D01*
X784545Y861819D01*
X784545Y858181D01*
X783153Y854820D01*
X780580Y852247D01*
X777219Y850855D01*
X773581Y850855D01*
G37*
%LPD*%
%LPC*%
G36*
X742981Y189955D02*
X742981Y189955D01*
X739620Y191347D01*
X737047Y193920D01*
X735655Y197281D01*
X735655Y200919D01*
X737047Y204280D01*
X739620Y206853D01*
X742981Y208245D01*
X746619Y208245D01*
X749980Y206853D01*
X752553Y204280D01*
X753945Y200919D01*
X753945Y197281D01*
X752553Y193920D01*
X749980Y191347D01*
X746619Y189955D01*
X742981Y189955D01*
G37*
%LPD*%
%LPC*%
G36*
X713581Y850855D02*
X713581Y850855D01*
X710220Y852247D01*
X707647Y854820D01*
X706255Y858181D01*
X706255Y861819D01*
X707647Y865180D01*
X710220Y867753D01*
X713581Y869145D01*
X717219Y869145D01*
X720580Y867753D01*
X723153Y865180D01*
X724545Y861819D01*
X724545Y858181D01*
X723153Y854820D01*
X720580Y852247D01*
X717219Y850855D01*
X713581Y850855D01*
G37*
%LPD*%
%LPC*%
G36*
X508181Y70855D02*
X508181Y70855D01*
X504820Y72247D01*
X502247Y74820D01*
X500855Y78181D01*
X500855Y81819D01*
X502247Y85180D01*
X504820Y87753D01*
X508181Y89145D01*
X511819Y89145D01*
X515180Y87753D01*
X517753Y85180D01*
X519145Y81819D01*
X519145Y78181D01*
X517753Y74820D01*
X515180Y72247D01*
X511819Y70855D01*
X508181Y70855D01*
G37*
%LPD*%
%LPC*%
G36*
X549881Y107955D02*
X549881Y107955D01*
X546520Y109347D01*
X543947Y111920D01*
X542555Y115281D01*
X542555Y118919D01*
X543947Y122280D01*
X546520Y124853D01*
X549881Y126245D01*
X553519Y126245D01*
X556880Y124853D01*
X559453Y122280D01*
X560845Y118919D01*
X560845Y115281D01*
X559453Y111920D01*
X556880Y109347D01*
X553519Y107955D01*
X549881Y107955D01*
G37*
%LPD*%
%LPC*%
G36*
X688181Y850855D02*
X688181Y850855D01*
X684820Y852247D01*
X682247Y854820D01*
X680855Y858181D01*
X680855Y861819D01*
X682247Y865180D01*
X684820Y867753D01*
X688181Y869145D01*
X691819Y869145D01*
X695180Y867753D01*
X697753Y865180D01*
X699145Y861819D01*
X699145Y858181D01*
X697753Y854820D01*
X695180Y852247D01*
X691819Y850855D01*
X688181Y850855D01*
G37*
%LPD*%
%LPC*%
G36*
X748181Y850855D02*
X748181Y850855D01*
X744820Y852247D01*
X742247Y854820D01*
X740855Y858181D01*
X740855Y861819D01*
X742247Y865180D01*
X744820Y867753D01*
X748181Y869145D01*
X751819Y869145D01*
X755180Y867753D01*
X757753Y865180D01*
X759145Y861819D01*
X759145Y858181D01*
X757753Y854820D01*
X755180Y852247D01*
X751819Y850855D01*
X748181Y850855D01*
G37*
%LPD*%
%LPC*%
G36*
X593581Y850855D02*
X593581Y850855D01*
X590220Y852247D01*
X587647Y854820D01*
X586255Y858181D01*
X586255Y861819D01*
X587647Y865180D01*
X590220Y867753D01*
X593581Y869145D01*
X597219Y869145D01*
X600580Y867753D01*
X603153Y865180D01*
X604545Y861819D01*
X604545Y858181D01*
X603153Y854820D01*
X600580Y852247D01*
X597219Y850855D01*
X593581Y850855D01*
G37*
%LPD*%
%LPC*%
G36*
X653581Y850855D02*
X653581Y850855D01*
X650220Y852247D01*
X647647Y854820D01*
X646255Y858181D01*
X646255Y861819D01*
X647647Y865180D01*
X650220Y867753D01*
X653581Y869145D01*
X657219Y869145D01*
X660580Y867753D01*
X663153Y865180D01*
X664545Y861819D01*
X664545Y858181D01*
X663153Y854820D01*
X660580Y852247D01*
X657219Y850855D01*
X653581Y850855D01*
G37*
%LPD*%
%LPC*%
G36*
X839996Y363835D02*
X839996Y363835D01*
X837032Y365063D01*
X834763Y367332D01*
X833535Y370296D01*
X833535Y373504D01*
X834763Y376468D01*
X837032Y378737D01*
X839996Y379965D01*
X843204Y379965D01*
X846168Y378737D01*
X848437Y376468D01*
X849665Y373504D01*
X849665Y370296D01*
X848437Y367332D01*
X846168Y365063D01*
X843204Y363835D01*
X839996Y363835D01*
G37*
%LPD*%
%LPC*%
G36*
X509796Y363835D02*
X509796Y363835D01*
X506832Y365063D01*
X504563Y367332D01*
X503335Y370296D01*
X503335Y373504D01*
X504563Y376468D01*
X506832Y378737D01*
X509796Y379965D01*
X513004Y379965D01*
X515968Y378737D01*
X518237Y376468D01*
X519465Y373504D01*
X519465Y370296D01*
X518237Y367332D01*
X515968Y365063D01*
X513004Y363835D01*
X509796Y363835D01*
G37*
%LPD*%
%LPC*%
G36*
X814596Y389235D02*
X814596Y389235D01*
X811632Y390463D01*
X809363Y392732D01*
X808135Y395696D01*
X808135Y398904D01*
X809363Y401868D01*
X811632Y404137D01*
X814596Y405365D01*
X817804Y405365D01*
X820768Y404137D01*
X823037Y401868D01*
X824265Y398904D01*
X824265Y395696D01*
X823037Y392732D01*
X820768Y390463D01*
X817804Y389235D01*
X814596Y389235D01*
G37*
%LPD*%
%LPC*%
G36*
X509796Y414635D02*
X509796Y414635D01*
X506832Y415863D01*
X504563Y418132D01*
X503335Y421096D01*
X503335Y424304D01*
X504563Y427268D01*
X506832Y429537D01*
X509796Y430765D01*
X513004Y430765D01*
X515968Y429537D01*
X518237Y427268D01*
X519465Y424304D01*
X519465Y421096D01*
X518237Y418132D01*
X515968Y415863D01*
X513004Y414635D01*
X509796Y414635D01*
G37*
%LPD*%
%LPC*%
G36*
X509796Y440035D02*
X509796Y440035D01*
X506832Y441263D01*
X504563Y443532D01*
X503335Y446496D01*
X503335Y449704D01*
X504563Y452668D01*
X506832Y454937D01*
X509796Y456165D01*
X513004Y456165D01*
X515968Y454937D01*
X518237Y452668D01*
X519465Y449704D01*
X519465Y446496D01*
X518237Y443532D01*
X515968Y441263D01*
X513004Y440035D01*
X509796Y440035D01*
G37*
%LPD*%
%LPC*%
G36*
X509796Y465435D02*
X509796Y465435D01*
X506832Y466663D01*
X504563Y468932D01*
X503335Y471896D01*
X503335Y475104D01*
X504563Y478068D01*
X506832Y480337D01*
X509796Y481565D01*
X513004Y481565D01*
X515968Y480337D01*
X518237Y478068D01*
X519465Y475104D01*
X519465Y471896D01*
X518237Y468932D01*
X515968Y466663D01*
X513004Y465435D01*
X509796Y465435D01*
G37*
%LPD*%
%LPC*%
G36*
X509796Y490835D02*
X509796Y490835D01*
X506832Y492063D01*
X504563Y494332D01*
X503335Y497296D01*
X503335Y500504D01*
X504563Y503468D01*
X506832Y505737D01*
X509796Y506965D01*
X513004Y506965D01*
X515968Y505737D01*
X518237Y503468D01*
X519465Y500504D01*
X519465Y497296D01*
X518237Y494332D01*
X515968Y492063D01*
X513004Y490835D01*
X509796Y490835D01*
G37*
%LPD*%
%LPC*%
G36*
X509796Y516235D02*
X509796Y516235D01*
X506832Y517463D01*
X504563Y519732D01*
X503335Y522696D01*
X503335Y525904D01*
X504563Y528868D01*
X506832Y531137D01*
X509796Y532365D01*
X513004Y532365D01*
X515968Y531137D01*
X518237Y528868D01*
X519465Y525904D01*
X519465Y522696D01*
X518237Y519732D01*
X515968Y517463D01*
X513004Y516235D01*
X509796Y516235D01*
G37*
%LPD*%
%LPC*%
G36*
X535196Y516235D02*
X535196Y516235D01*
X532232Y517463D01*
X529963Y519732D01*
X528735Y522696D01*
X528735Y525904D01*
X529963Y528868D01*
X532232Y531137D01*
X535196Y532365D01*
X538404Y532365D01*
X541368Y531137D01*
X543637Y528868D01*
X544865Y525904D01*
X544865Y522696D01*
X543637Y519732D01*
X541368Y517463D01*
X538404Y516235D01*
X535196Y516235D01*
G37*
%LPD*%
%LPC*%
G36*
X560596Y516235D02*
X560596Y516235D01*
X557632Y517463D01*
X555363Y519732D01*
X554135Y522696D01*
X554135Y525904D01*
X555363Y528868D01*
X557632Y531137D01*
X560596Y532365D01*
X563804Y532365D01*
X566768Y531137D01*
X569037Y528868D01*
X570265Y525904D01*
X570265Y522696D01*
X569037Y519732D01*
X566768Y517463D01*
X563804Y516235D01*
X560596Y516235D01*
G37*
%LPD*%
%LPC*%
G36*
X509796Y389235D02*
X509796Y389235D01*
X506832Y390463D01*
X504563Y392732D01*
X503335Y395696D01*
X503335Y398904D01*
X504563Y401868D01*
X506832Y404137D01*
X509796Y405365D01*
X513004Y405365D01*
X515968Y404137D01*
X518237Y401868D01*
X519465Y398904D01*
X519465Y395696D01*
X518237Y392732D01*
X515968Y390463D01*
X513004Y389235D01*
X509796Y389235D01*
G37*
%LPD*%
%LPC*%
G36*
X585996Y516235D02*
X585996Y516235D01*
X583032Y517463D01*
X580763Y519732D01*
X579535Y522696D01*
X579535Y525904D01*
X580763Y528868D01*
X583032Y531137D01*
X585996Y532365D01*
X589204Y532365D01*
X592168Y531137D01*
X594437Y528868D01*
X595665Y525904D01*
X595665Y522696D01*
X594437Y519732D01*
X592168Y517463D01*
X589204Y516235D01*
X585996Y516235D01*
G37*
%LPD*%
%LPC*%
G36*
X535196Y363835D02*
X535196Y363835D01*
X532232Y365063D01*
X529963Y367332D01*
X528735Y370296D01*
X528735Y373504D01*
X529963Y376468D01*
X532232Y378737D01*
X535196Y379965D01*
X538404Y379965D01*
X541368Y378737D01*
X543637Y376468D01*
X544865Y373504D01*
X544865Y370296D01*
X543637Y367332D01*
X541368Y365063D01*
X538404Y363835D01*
X535196Y363835D01*
G37*
%LPD*%
%LPC*%
G36*
X763796Y363835D02*
X763796Y363835D01*
X760832Y365063D01*
X758563Y367332D01*
X757335Y370296D01*
X757335Y373504D01*
X758563Y376468D01*
X760832Y378737D01*
X763796Y379965D01*
X767004Y379965D01*
X769968Y378737D01*
X772237Y376468D01*
X773465Y373504D01*
X773465Y370296D01*
X772237Y367332D01*
X769968Y365063D01*
X767004Y363835D01*
X763796Y363835D01*
G37*
%LPD*%
%LPC*%
G36*
X712996Y363835D02*
X712996Y363835D01*
X710032Y365063D01*
X707763Y367332D01*
X706535Y370296D01*
X706535Y373504D01*
X707763Y376468D01*
X710032Y378737D01*
X712996Y379965D01*
X716204Y379965D01*
X719168Y378737D01*
X721437Y376468D01*
X722665Y373504D01*
X722665Y370296D01*
X721437Y367332D01*
X719168Y365063D01*
X716204Y363835D01*
X712996Y363835D01*
G37*
%LPD*%
%LPC*%
G36*
X789196Y363835D02*
X789196Y363835D01*
X786232Y365063D01*
X783963Y367332D01*
X782735Y370296D01*
X782735Y373504D01*
X783963Y376468D01*
X786232Y378737D01*
X789196Y379965D01*
X792404Y379965D01*
X795368Y378737D01*
X797637Y376468D01*
X798865Y373504D01*
X798865Y370296D01*
X797637Y367332D01*
X795368Y365063D01*
X792404Y363835D01*
X789196Y363835D01*
G37*
%LPD*%
%LPC*%
G36*
X814596Y363835D02*
X814596Y363835D01*
X811632Y365063D01*
X809363Y367332D01*
X808135Y370296D01*
X808135Y373504D01*
X809363Y376468D01*
X811632Y378737D01*
X814596Y379965D01*
X817804Y379965D01*
X820768Y378737D01*
X823037Y376468D01*
X824265Y373504D01*
X824265Y370296D01*
X823037Y367332D01*
X820768Y365063D01*
X817804Y363835D01*
X814596Y363835D01*
G37*
%LPD*%
%LPC*%
G36*
X662196Y363835D02*
X662196Y363835D01*
X659232Y365063D01*
X656963Y367332D01*
X655735Y370296D01*
X655735Y373504D01*
X656963Y376468D01*
X659232Y378737D01*
X662196Y379965D01*
X665404Y379965D01*
X668368Y378737D01*
X670637Y376468D01*
X671865Y373504D01*
X671865Y370296D01*
X670637Y367332D01*
X668368Y365063D01*
X665404Y363835D01*
X662196Y363835D01*
G37*
%LPD*%
%LPC*%
G36*
X636796Y363835D02*
X636796Y363835D01*
X633832Y365063D01*
X631563Y367332D01*
X630335Y370296D01*
X630335Y373504D01*
X631563Y376468D01*
X633832Y378737D01*
X636796Y379965D01*
X640004Y379965D01*
X642968Y378737D01*
X645237Y376468D01*
X646465Y373504D01*
X646465Y370296D01*
X645237Y367332D01*
X642968Y365063D01*
X640004Y363835D01*
X636796Y363835D01*
G37*
%LPD*%
%LPC*%
G36*
X611396Y363835D02*
X611396Y363835D01*
X608432Y365063D01*
X606163Y367332D01*
X604935Y370296D01*
X604935Y373504D01*
X606163Y376468D01*
X608432Y378737D01*
X611396Y379965D01*
X614604Y379965D01*
X617568Y378737D01*
X619837Y376468D01*
X621065Y373504D01*
X621065Y370296D01*
X619837Y367332D01*
X617568Y365063D01*
X614604Y363835D01*
X611396Y363835D01*
G37*
%LPD*%
%LPC*%
G36*
X585996Y363835D02*
X585996Y363835D01*
X583032Y365063D01*
X580763Y367332D01*
X579535Y370296D01*
X579535Y373504D01*
X580763Y376468D01*
X583032Y378737D01*
X585996Y379965D01*
X589204Y379965D01*
X592168Y378737D01*
X594437Y376468D01*
X595665Y373504D01*
X595665Y370296D01*
X594437Y367332D01*
X592168Y365063D01*
X589204Y363835D01*
X585996Y363835D01*
G37*
%LPD*%
%LPC*%
G36*
X560596Y363835D02*
X560596Y363835D01*
X557632Y365063D01*
X555363Y367332D01*
X554135Y370296D01*
X554135Y373504D01*
X555363Y376468D01*
X557632Y378737D01*
X560596Y379965D01*
X563804Y379965D01*
X566768Y378737D01*
X569037Y376468D01*
X570265Y373504D01*
X570265Y370296D01*
X569037Y367332D01*
X566768Y365063D01*
X563804Y363835D01*
X560596Y363835D01*
G37*
%LPD*%
%LPC*%
G36*
X738396Y363835D02*
X738396Y363835D01*
X735432Y365063D01*
X733163Y367332D01*
X731935Y370296D01*
X731935Y373504D01*
X733163Y376468D01*
X735432Y378737D01*
X738396Y379965D01*
X741604Y379965D01*
X744568Y378737D01*
X746837Y376468D01*
X748065Y373504D01*
X748065Y370296D01*
X746837Y367332D01*
X744568Y365063D01*
X741604Y363835D01*
X738396Y363835D01*
G37*
%LPD*%
%LPC*%
G36*
X687596Y363835D02*
X687596Y363835D01*
X684632Y365063D01*
X682363Y367332D01*
X681135Y370296D01*
X681135Y373504D01*
X682363Y376468D01*
X684632Y378737D01*
X687596Y379965D01*
X690804Y379965D01*
X693768Y378737D01*
X696037Y376468D01*
X697265Y373504D01*
X697265Y370296D01*
X696037Y367332D01*
X693768Y365063D01*
X690804Y363835D01*
X687596Y363835D01*
G37*
%LPD*%
%LPC*%
G36*
X636796Y516235D02*
X636796Y516235D01*
X633832Y517463D01*
X631563Y519732D01*
X630335Y522696D01*
X630335Y525904D01*
X631563Y528868D01*
X633832Y531137D01*
X636796Y532365D01*
X640004Y532365D01*
X642968Y531137D01*
X645237Y528868D01*
X646465Y525904D01*
X646465Y522696D01*
X645237Y519732D01*
X642968Y517463D01*
X640004Y516235D01*
X636796Y516235D01*
G37*
%LPD*%
%LPC*%
G36*
X611396Y516235D02*
X611396Y516235D01*
X608432Y517463D01*
X606163Y519732D01*
X604935Y522696D01*
X604935Y525904D01*
X606163Y528868D01*
X608432Y531137D01*
X611396Y532365D01*
X614604Y532365D01*
X617568Y531137D01*
X619837Y528868D01*
X621065Y525904D01*
X621065Y522696D01*
X619837Y519732D01*
X617568Y517463D01*
X614604Y516235D01*
X611396Y516235D01*
G37*
%LPD*%
%LPC*%
G36*
X839996Y516235D02*
X839996Y516235D01*
X837032Y517463D01*
X834763Y519732D01*
X833535Y522696D01*
X833535Y525904D01*
X834763Y528868D01*
X837032Y531137D01*
X839996Y532365D01*
X843204Y532365D01*
X846168Y531137D01*
X848437Y528868D01*
X849665Y525904D01*
X849665Y522696D01*
X848437Y519732D01*
X846168Y517463D01*
X843204Y516235D01*
X839996Y516235D01*
G37*
%LPD*%
%LPC*%
G36*
X814596Y516235D02*
X814596Y516235D01*
X811632Y517463D01*
X809363Y519732D01*
X808135Y522696D01*
X808135Y525904D01*
X809363Y528868D01*
X811632Y531137D01*
X814596Y532365D01*
X817804Y532365D01*
X820768Y531137D01*
X823037Y528868D01*
X824265Y525904D01*
X824265Y522696D01*
X823037Y519732D01*
X820768Y517463D01*
X817804Y516235D01*
X814596Y516235D01*
G37*
%LPD*%
%LPC*%
G36*
X789196Y516235D02*
X789196Y516235D01*
X786232Y517463D01*
X783963Y519732D01*
X782735Y522696D01*
X782735Y525904D01*
X783963Y528868D01*
X786232Y531137D01*
X789196Y532365D01*
X792404Y532365D01*
X795368Y531137D01*
X797637Y528868D01*
X798865Y525904D01*
X798865Y522696D01*
X797637Y519732D01*
X795368Y517463D01*
X792404Y516235D01*
X789196Y516235D01*
G37*
%LPD*%
%LPC*%
G36*
X763796Y516235D02*
X763796Y516235D01*
X760832Y517463D01*
X758563Y519732D01*
X757335Y522696D01*
X757335Y525904D01*
X758563Y528868D01*
X760832Y531137D01*
X763796Y532365D01*
X767004Y532365D01*
X769968Y531137D01*
X772237Y528868D01*
X773465Y525904D01*
X773465Y522696D01*
X772237Y519732D01*
X769968Y517463D01*
X767004Y516235D01*
X763796Y516235D01*
G37*
%LPD*%
%LPC*%
G36*
X738396Y516235D02*
X738396Y516235D01*
X735432Y517463D01*
X733163Y519732D01*
X731935Y522696D01*
X731935Y525904D01*
X733163Y528868D01*
X735432Y531137D01*
X738396Y532365D01*
X741604Y532365D01*
X744568Y531137D01*
X746837Y528868D01*
X748065Y525904D01*
X748065Y522696D01*
X746837Y519732D01*
X744568Y517463D01*
X741604Y516235D01*
X738396Y516235D01*
G37*
%LPD*%
%LPC*%
G36*
X712996Y516235D02*
X712996Y516235D01*
X710032Y517463D01*
X707763Y519732D01*
X706535Y522696D01*
X706535Y525904D01*
X707763Y528868D01*
X710032Y531137D01*
X712996Y532365D01*
X716204Y532365D01*
X719168Y531137D01*
X721437Y528868D01*
X722665Y525904D01*
X722665Y522696D01*
X721437Y519732D01*
X719168Y517463D01*
X716204Y516235D01*
X712996Y516235D01*
G37*
%LPD*%
%LPC*%
G36*
X687596Y516235D02*
X687596Y516235D01*
X684632Y517463D01*
X682363Y519732D01*
X681135Y522696D01*
X681135Y525904D01*
X682363Y528868D01*
X684632Y531137D01*
X687596Y532365D01*
X690804Y532365D01*
X693768Y531137D01*
X696037Y528868D01*
X697265Y525904D01*
X697265Y522696D01*
X696037Y519732D01*
X693768Y517463D01*
X690804Y516235D01*
X687596Y516235D01*
G37*
%LPD*%
%LPC*%
G36*
X662196Y516235D02*
X662196Y516235D01*
X659232Y517463D01*
X656963Y519732D01*
X655735Y522696D01*
X655735Y525904D01*
X656963Y528868D01*
X659232Y531137D01*
X662196Y532365D01*
X665404Y532365D01*
X668368Y531137D01*
X670637Y528868D01*
X671865Y525904D01*
X671865Y522696D01*
X670637Y519732D01*
X668368Y517463D01*
X665404Y516235D01*
X662196Y516235D01*
G37*
%LPD*%
%LPC*%
G36*
X643802Y83693D02*
X643802Y83693D01*
X640693Y86802D01*
X640693Y91198D01*
X643957Y94462D01*
X643968Y94478D01*
X643984Y94490D01*
X644040Y94578D01*
X644100Y94661D01*
X644106Y94680D01*
X644117Y94697D01*
X644142Y94798D01*
X644173Y94897D01*
X644172Y94916D01*
X644177Y94936D01*
X644169Y95039D01*
X644166Y95142D01*
X644160Y95161D01*
X644158Y95181D01*
X644118Y95276D01*
X644082Y95373D01*
X644069Y95389D01*
X644062Y95407D01*
X643957Y95538D01*
X640693Y98802D01*
X640693Y103198D01*
X643802Y106307D01*
X648198Y106307D01*
X651307Y103198D01*
X651307Y98802D01*
X648043Y95538D01*
X648032Y95522D01*
X648016Y95510D01*
X647960Y95422D01*
X647900Y95339D01*
X647894Y95320D01*
X647883Y95303D01*
X647858Y95202D01*
X647827Y95103D01*
X647828Y95084D01*
X647823Y95064D01*
X647831Y94961D01*
X647834Y94858D01*
X647840Y94839D01*
X647842Y94819D01*
X647882Y94724D01*
X647918Y94627D01*
X647931Y94611D01*
X647938Y94593D01*
X648043Y94462D01*
X651307Y91198D01*
X651307Y86802D01*
X648198Y83693D01*
X643802Y83693D01*
G37*
%LPD*%
%LPC*%
G36*
X642802Y58693D02*
X642802Y58693D01*
X639693Y61802D01*
X639693Y66198D01*
X642957Y69462D01*
X642968Y69478D01*
X642984Y69490D01*
X643040Y69578D01*
X643100Y69661D01*
X643106Y69680D01*
X643117Y69697D01*
X643142Y69798D01*
X643173Y69897D01*
X643172Y69916D01*
X643177Y69936D01*
X643169Y70039D01*
X643166Y70142D01*
X643160Y70161D01*
X643158Y70181D01*
X643118Y70276D01*
X643082Y70373D01*
X643069Y70389D01*
X643062Y70407D01*
X642957Y70538D01*
X639693Y73802D01*
X639693Y78198D01*
X642802Y81307D01*
X647198Y81307D01*
X650307Y78198D01*
X650307Y73802D01*
X647043Y70538D01*
X647032Y70522D01*
X647016Y70510D01*
X646960Y70422D01*
X646900Y70339D01*
X646894Y70320D01*
X646883Y70303D01*
X646858Y70202D01*
X646827Y70103D01*
X646828Y70084D01*
X646823Y70064D01*
X646831Y69961D01*
X646834Y69858D01*
X646840Y69839D01*
X646842Y69819D01*
X646882Y69724D01*
X646918Y69627D01*
X646931Y69611D01*
X646938Y69593D01*
X647043Y69462D01*
X650307Y66198D01*
X650307Y61802D01*
X647198Y58693D01*
X642802Y58693D01*
G37*
%LPD*%
%LPC*%
G36*
X809802Y692693D02*
X809802Y692693D01*
X806693Y695802D01*
X806693Y700198D01*
X809802Y703307D01*
X814198Y703307D01*
X817307Y700198D01*
X817307Y695802D01*
X814198Y692693D01*
X809802Y692693D01*
G37*
%LPD*%
%LPC*%
G36*
X546802Y274693D02*
X546802Y274693D01*
X543693Y277802D01*
X543693Y282198D01*
X546802Y285307D01*
X551198Y285307D01*
X554307Y282198D01*
X554307Y277802D01*
X551198Y274693D01*
X546802Y274693D01*
G37*
%LPD*%
%LPC*%
G36*
X777802Y174693D02*
X777802Y174693D01*
X774693Y177802D01*
X774693Y182198D01*
X777802Y185307D01*
X782198Y185307D01*
X785307Y182198D01*
X785307Y177802D01*
X782198Y174693D01*
X777802Y174693D01*
G37*
%LPD*%
%LPC*%
G36*
X775802Y692693D02*
X775802Y692693D01*
X772693Y695802D01*
X772693Y700198D01*
X775802Y703307D01*
X780198Y703307D01*
X783307Y700198D01*
X783307Y695802D01*
X780198Y692693D01*
X775802Y692693D01*
G37*
%LPD*%
%LPC*%
G36*
X737802Y684693D02*
X737802Y684693D01*
X734693Y687802D01*
X734693Y692198D01*
X737802Y695307D01*
X742198Y695307D01*
X745307Y692198D01*
X745307Y687802D01*
X742198Y684693D01*
X737802Y684693D01*
G37*
%LPD*%
%LPC*%
G36*
X598802Y230693D02*
X598802Y230693D01*
X595693Y233802D01*
X595693Y238198D01*
X598802Y241307D01*
X603198Y241307D01*
X606307Y238198D01*
X606307Y233802D01*
X603198Y230693D01*
X598802Y230693D01*
G37*
%LPD*%
%LPC*%
G36*
X532802Y235693D02*
X532802Y235693D01*
X529693Y238802D01*
X529693Y243198D01*
X532802Y246307D01*
X537198Y246307D01*
X540307Y243198D01*
X540307Y238802D01*
X537198Y235693D01*
X532802Y235693D01*
G37*
%LPD*%
%LPC*%
G36*
X415802Y677693D02*
X415802Y677693D01*
X412693Y680802D01*
X412693Y685198D01*
X415802Y688307D01*
X420198Y688307D01*
X423307Y685198D01*
X423307Y680802D01*
X420198Y677693D01*
X415802Y677693D01*
G37*
%LPD*%
%LPC*%
G36*
X636802Y273693D02*
X636802Y273693D01*
X633693Y276802D01*
X633693Y281198D01*
X636802Y284307D01*
X641198Y284307D01*
X644307Y281198D01*
X644307Y276802D01*
X641198Y273693D01*
X636802Y273693D01*
G37*
%LPD*%
%LPC*%
G36*
X500802Y274693D02*
X500802Y274693D01*
X497693Y277802D01*
X497693Y282198D01*
X500802Y285307D01*
X505198Y285307D01*
X508307Y282198D01*
X508307Y277802D01*
X505198Y274693D01*
X500802Y274693D01*
G37*
%LPD*%
%LPC*%
G36*
X642802Y45693D02*
X642802Y45693D01*
X639693Y48802D01*
X639693Y53198D01*
X642802Y56307D01*
X647198Y56307D01*
X650307Y53198D01*
X650307Y48802D01*
X647198Y45693D01*
X642802Y45693D01*
G37*
%LPD*%
%LPC*%
G36*
X672553Y168117D02*
X672553Y168117D01*
X669444Y171226D01*
X669444Y175622D01*
X672553Y178731D01*
X676949Y178731D01*
X680058Y175622D01*
X680058Y171226D01*
X676949Y168117D01*
X672553Y168117D01*
G37*
%LPD*%
%LPC*%
G36*
X415802Y694693D02*
X415802Y694693D01*
X412693Y697802D01*
X412693Y702198D01*
X415802Y705307D01*
X420198Y705307D01*
X423307Y702198D01*
X423307Y697802D01*
X420198Y694693D01*
X415802Y694693D01*
G37*
%LPD*%
%LPC*%
G36*
X694802Y153949D02*
X694802Y153949D01*
X691693Y157058D01*
X691693Y161454D01*
X694802Y164563D01*
X699198Y164563D01*
X702307Y161454D01*
X702307Y157058D01*
X699198Y153949D01*
X694802Y153949D01*
G37*
%LPD*%
%LPC*%
G36*
X737802Y150693D02*
X737802Y150693D01*
X734693Y153802D01*
X734693Y158198D01*
X737802Y161307D01*
X742198Y161307D01*
X745307Y158198D01*
X745307Y153802D01*
X742198Y150693D01*
X737802Y150693D01*
G37*
%LPD*%
%LPC*%
G36*
X376802Y706693D02*
X376802Y706693D01*
X373693Y709802D01*
X373693Y714198D01*
X376802Y717307D01*
X381198Y717307D01*
X384307Y714198D01*
X384307Y709802D01*
X381198Y706693D01*
X376802Y706693D01*
G37*
%LPD*%
%LPC*%
G36*
X658802Y713693D02*
X658802Y713693D01*
X655693Y716802D01*
X655693Y721198D01*
X658802Y724307D01*
X663198Y724307D01*
X666307Y721198D01*
X666307Y716802D01*
X663198Y713693D01*
X658802Y713693D01*
G37*
%LPD*%
%LPC*%
G36*
X791802Y728693D02*
X791802Y728693D01*
X788693Y731802D01*
X788693Y736198D01*
X791802Y739307D01*
X796198Y739307D01*
X799307Y736198D01*
X799307Y731802D01*
X796198Y728693D01*
X791802Y728693D01*
G37*
%LPD*%
%LPC*%
G36*
X716802Y88693D02*
X716802Y88693D01*
X713693Y91802D01*
X713693Y96198D01*
X716802Y99307D01*
X721198Y99307D01*
X724307Y96198D01*
X724307Y91802D01*
X721198Y88693D01*
X716802Y88693D01*
G37*
%LPD*%
%LPC*%
G36*
X369802Y743693D02*
X369802Y743693D01*
X366693Y746802D01*
X366693Y751198D01*
X369802Y754307D01*
X374198Y754307D01*
X377307Y751198D01*
X377307Y746802D01*
X374198Y743693D01*
X369802Y743693D01*
G37*
%LPD*%
%LPC*%
G36*
X367802Y60693D02*
X367802Y60693D01*
X364693Y63802D01*
X364693Y68198D01*
X367802Y71307D01*
X372198Y71307D01*
X375307Y68198D01*
X375307Y63802D01*
X372198Y60693D01*
X367802Y60693D01*
G37*
%LPD*%
%LPC*%
G36*
X366802Y758693D02*
X366802Y758693D01*
X363693Y761802D01*
X363693Y766198D01*
X366802Y769307D01*
X371198Y769307D01*
X374307Y766198D01*
X374307Y761802D01*
X371198Y758693D01*
X366802Y758693D01*
G37*
%LPD*%
%LPC*%
G36*
X830802Y667693D02*
X830802Y667693D01*
X827693Y670802D01*
X827693Y675198D01*
X830802Y678307D01*
X835198Y678307D01*
X838307Y675198D01*
X838307Y670802D01*
X835198Y667693D01*
X830802Y667693D01*
G37*
%LPD*%
%LPC*%
G36*
X747802Y564693D02*
X747802Y564693D01*
X744693Y567802D01*
X744693Y572198D01*
X747802Y575307D01*
X752198Y575307D01*
X755307Y572198D01*
X755307Y567802D01*
X752198Y564693D01*
X747802Y564693D01*
G37*
%LPD*%
%LPC*%
G36*
X364802Y578693D02*
X364802Y578693D01*
X361693Y581802D01*
X361693Y586198D01*
X364802Y589307D01*
X369198Y589307D01*
X372307Y586198D01*
X372307Y581802D01*
X369198Y578693D01*
X364802Y578693D01*
G37*
%LPD*%
%LPC*%
G36*
X553802Y583693D02*
X553802Y583693D01*
X550693Y586802D01*
X550693Y591198D01*
X553802Y594307D01*
X558198Y594307D01*
X561307Y591198D01*
X561307Y586802D01*
X558198Y583693D01*
X553802Y583693D01*
G37*
%LPD*%
%LPC*%
G36*
X707802Y584693D02*
X707802Y584693D01*
X704693Y587802D01*
X704693Y592198D01*
X707802Y595307D01*
X712198Y595307D01*
X715307Y592198D01*
X715307Y587802D01*
X712198Y584693D01*
X707802Y584693D01*
G37*
%LPD*%
%LPC*%
G36*
X797802Y584693D02*
X797802Y584693D01*
X794693Y587802D01*
X794693Y592198D01*
X797802Y595307D01*
X802198Y595307D01*
X805307Y592198D01*
X805307Y587802D01*
X802198Y584693D01*
X797802Y584693D01*
G37*
%LPD*%
%LPC*%
G36*
X593802Y608693D02*
X593802Y608693D01*
X590693Y611802D01*
X590693Y616198D01*
X593802Y619307D01*
X598198Y619307D01*
X601307Y616198D01*
X601307Y611802D01*
X598198Y608693D01*
X593802Y608693D01*
G37*
%LPD*%
%LPC*%
G36*
X777802Y614693D02*
X777802Y614693D01*
X774693Y617802D01*
X774693Y622198D01*
X777802Y625307D01*
X782198Y625307D01*
X785307Y622198D01*
X785307Y617802D01*
X782198Y614693D01*
X777802Y614693D01*
G37*
%LPD*%
%LPC*%
G36*
X660802Y620693D02*
X660802Y620693D01*
X657693Y623802D01*
X657693Y628198D01*
X660802Y631307D01*
X665198Y631307D01*
X668307Y628198D01*
X668307Y623802D01*
X665198Y620693D01*
X660802Y620693D01*
G37*
%LPD*%
%LPC*%
G36*
X738802Y630693D02*
X738802Y630693D01*
X735693Y633802D01*
X735693Y638198D01*
X738802Y641307D01*
X743198Y641307D01*
X746307Y638198D01*
X746307Y633802D01*
X743198Y630693D01*
X738802Y630693D01*
G37*
%LPD*%
%LPC*%
G36*
X660802Y633693D02*
X660802Y633693D01*
X657693Y636802D01*
X657693Y641198D01*
X660802Y644307D01*
X665198Y644307D01*
X668307Y641198D01*
X668307Y636802D01*
X665198Y633693D01*
X660802Y633693D01*
G37*
%LPD*%
%LPC*%
G36*
X754802Y641693D02*
X754802Y641693D01*
X751693Y644802D01*
X751693Y649198D01*
X754802Y652307D01*
X759198Y652307D01*
X762307Y649198D01*
X762307Y644802D01*
X759198Y641693D01*
X754802Y641693D01*
G37*
%LPD*%
%LPC*%
G36*
X810802Y642693D02*
X810802Y642693D01*
X807693Y645802D01*
X807693Y650198D01*
X810802Y653307D01*
X815198Y653307D01*
X818307Y650198D01*
X818307Y645802D01*
X815198Y642693D01*
X810802Y642693D01*
G37*
%LPD*%
%LPC*%
G36*
X776802Y654693D02*
X776802Y654693D01*
X773693Y657802D01*
X773693Y662198D01*
X776802Y665307D01*
X781198Y665307D01*
X784307Y662198D01*
X784307Y657802D01*
X781198Y654693D01*
X776802Y654693D01*
G37*
%LPD*%
%LPC*%
G36*
X554802Y658693D02*
X554802Y658693D01*
X551693Y661802D01*
X551693Y666198D01*
X554802Y669307D01*
X559198Y669307D01*
X562307Y666198D01*
X562307Y661802D01*
X559198Y658693D01*
X554802Y658693D01*
G37*
%LPD*%
%LPC*%
G36*
X570802Y308693D02*
X570802Y308693D01*
X567693Y311802D01*
X567693Y316198D01*
X570802Y319307D01*
X575198Y319307D01*
X578307Y316198D01*
X578307Y311802D01*
X575198Y308693D01*
X570802Y308693D01*
G37*
%LPD*%
%LPC*%
G36*
X839802Y348693D02*
X839802Y348693D01*
X836693Y351802D01*
X836693Y356198D01*
X839802Y359307D01*
X844198Y359307D01*
X847307Y356198D01*
X847307Y351802D01*
X844198Y348693D01*
X839802Y348693D01*
G37*
%LPD*%
%LPC*%
G36*
X515802Y339693D02*
X515802Y339693D01*
X512693Y342802D01*
X512693Y347198D01*
X515802Y350307D01*
X520198Y350307D01*
X523307Y347198D01*
X523307Y342802D01*
X520198Y339693D01*
X515802Y339693D01*
G37*
%LPD*%
%LPC*%
G36*
X722802Y318693D02*
X722802Y318693D01*
X719693Y321802D01*
X719693Y326198D01*
X722802Y329307D01*
X727198Y329307D01*
X730307Y326198D01*
X730307Y321802D01*
X727198Y318693D01*
X722802Y318693D01*
G37*
%LPD*%
%LPC*%
G36*
X697802Y318269D02*
X697802Y318269D01*
X694693Y321378D01*
X694693Y325774D01*
X697802Y328883D01*
X702198Y328883D01*
X705307Y325774D01*
X705307Y321378D01*
X702198Y318269D01*
X697802Y318269D01*
G37*
%LPD*%
%LPC*%
G36*
X757802Y314693D02*
X757802Y314693D01*
X754693Y317802D01*
X754693Y322198D01*
X757802Y325307D01*
X762198Y325307D01*
X765307Y322198D01*
X765307Y317802D01*
X762198Y314693D01*
X757802Y314693D01*
G37*
%LPD*%
%LPC*%
G36*
X738802Y313693D02*
X738802Y313693D01*
X735693Y316802D01*
X735693Y321198D01*
X738802Y324307D01*
X743198Y324307D01*
X746307Y321198D01*
X746307Y316802D01*
X743198Y313693D01*
X738802Y313693D01*
G37*
%LPD*%
%LPC*%
G36*
X591802Y313693D02*
X591802Y313693D01*
X588693Y316802D01*
X588693Y321198D01*
X591802Y324307D01*
X596198Y324307D01*
X599307Y321198D01*
X599307Y316802D01*
X596198Y313693D01*
X591802Y313693D01*
G37*
%LPD*%
%LPC*%
G36*
X526802Y313693D02*
X526802Y313693D01*
X523693Y316802D01*
X523693Y321198D01*
X526802Y324307D01*
X531198Y324307D01*
X534307Y321198D01*
X534307Y316802D01*
X531198Y313693D01*
X526802Y313693D01*
G37*
%LPD*%
%LPC*%
G36*
X610802Y311693D02*
X610802Y311693D01*
X607693Y314802D01*
X607693Y319198D01*
X610802Y322307D01*
X615198Y322307D01*
X618307Y319198D01*
X618307Y314802D01*
X615198Y311693D01*
X610802Y311693D01*
G37*
%LPD*%
%LPC*%
G36*
X809423Y227623D02*
X809423Y227623D01*
X809423Y236146D01*
X810279Y236011D01*
X811800Y235516D01*
X813225Y234790D01*
X814519Y233850D01*
X815650Y232719D01*
X816590Y231425D01*
X817316Y230000D01*
X817811Y228479D01*
X817946Y227623D01*
X809423Y227623D01*
G37*
%LPD*%
%LPC*%
G36*
X809423Y224577D02*
X809423Y224577D01*
X817946Y224577D01*
X817811Y223721D01*
X817316Y222200D01*
X816590Y220775D01*
X815650Y219481D01*
X814519Y218350D01*
X813225Y217410D01*
X811800Y216684D01*
X810279Y216189D01*
X809423Y216054D01*
X809423Y224577D01*
G37*
%LPD*%
%LPC*%
G36*
X797854Y227623D02*
X797854Y227623D01*
X797989Y228479D01*
X798484Y230000D01*
X799210Y231425D01*
X800150Y232719D01*
X801281Y233850D01*
X802575Y234790D01*
X804000Y235516D01*
X805521Y236011D01*
X806377Y236146D01*
X806377Y227623D01*
X797854Y227623D01*
G37*
%LPD*%
%LPC*%
G36*
X805521Y216189D02*
X805521Y216189D01*
X804000Y216684D01*
X802575Y217410D01*
X801281Y218350D01*
X800150Y219481D01*
X799210Y220775D01*
X798484Y222200D01*
X797989Y223721D01*
X797854Y224577D01*
X806377Y224577D01*
X806377Y216054D01*
X805521Y216189D01*
G37*
%LPD*%
%LPC*%
G36*
X807899Y226099D02*
X807899Y226099D01*
X807899Y226101D01*
X807901Y226101D01*
X807901Y226099D01*
X807899Y226099D01*
G37*
%LPD*%
D10*
X417800Y192200D03*
X417800Y132200D03*
X464800Y162200D03*
D11*
X807900Y226100D03*
X744800Y199100D03*
X551700Y117100D03*
X73600Y378100D03*
X230500Y276100D03*
X157400Y346100D03*
X177700Y797300D03*
X152300Y797300D03*
D12*
X841600Y524300D03*
X816200Y524300D03*
X790800Y524300D03*
X765400Y524300D03*
X740000Y524300D03*
X714600Y524300D03*
X689200Y524300D03*
X663800Y524300D03*
X638400Y524300D03*
X613000Y524300D03*
X587600Y524300D03*
X562200Y524300D03*
X536800Y524300D03*
X511400Y524300D03*
X511400Y498900D03*
X511400Y473500D03*
X511400Y448100D03*
X511400Y397300D03*
X511400Y371900D03*
X536800Y371900D03*
X562200Y371900D03*
X587600Y371900D03*
X613000Y371900D03*
X638400Y371900D03*
X663800Y371900D03*
X689200Y371900D03*
X714600Y371900D03*
X740000Y371900D03*
X765400Y371900D03*
X790800Y371900D03*
X816200Y371900D03*
X841600Y371900D03*
X816200Y397300D03*
X511400Y422700D03*
D13*
X50800Y898600D03*
X812800Y41300D03*
X850900Y898600D03*
X76200Y41300D03*
D11*
X290000Y740000D03*
X230000Y820000D03*
X290000Y683000D03*
X510000Y80000D03*
X419000Y238000D03*
X570000Y860000D03*
X595400Y860000D03*
X630000Y860000D03*
X655400Y860000D03*
X690000Y860000D03*
X715400Y860000D03*
X750000Y860000D03*
X775400Y860000D03*
X245000Y622000D03*
X275000Y622000D03*
D14*
X367000Y584000D03*
X710000Y590000D03*
X356000Y719000D03*
X265000Y574000D03*
X596000Y614000D03*
X663000Y626000D03*
X165000Y769000D03*
X144000Y698000D03*
X192000Y769000D03*
X192000Y681000D03*
X94000Y115000D03*
X103000Y115000D03*
X112000Y115000D03*
X218000Y113000D03*
X228000Y113000D03*
X238000Y113000D03*
X221000Y246000D03*
X231000Y246000D03*
X241000Y246000D03*
X141000Y246000D03*
X131000Y246000D03*
X121000Y246000D03*
X166000Y302000D03*
X320000Y704794D03*
X148000Y622000D03*
X149000Y631000D03*
X147000Y292000D03*
X180000Y640000D03*
X110000Y760000D03*
X211000Y623000D03*
X193000Y624000D03*
X177000Y624000D03*
X148000Y574000D03*
X148000Y564000D03*
X147000Y553000D03*
X225000Y572624D03*
X225000Y537000D03*
X223000Y552000D03*
X266612Y564912D03*
X271000Y488000D03*
X257000Y488000D03*
X842000Y354000D03*
X556000Y589000D03*
X557000Y664000D03*
X666000Y163000D03*
X656000Y162000D03*
X656000Y153000D03*
X666000Y153000D03*
X666000Y143000D03*
X656000Y143000D03*
X646000Y101000D03*
X646000Y89000D03*
X645000Y76000D03*
X645000Y64000D03*
X645000Y51000D03*
X608000Y102000D03*
X619000Y102000D03*
X630000Y102000D03*
X503000Y280000D03*
X372000Y749000D03*
X369000Y764000D03*
X418000Y700000D03*
X418000Y683000D03*
X379000Y712000D03*
X663000Y639000D03*
X661000Y719000D03*
X529000Y319000D03*
X639000Y279000D03*
X535000Y241000D03*
X365000Y49000D03*
X740000Y156000D03*
X741000Y636000D03*
X812000Y698000D03*
X778000Y698000D03*
X757000Y647000D03*
X813000Y648000D03*
X833000Y673000D03*
X613000Y317000D03*
X741000Y319000D03*
X700000Y323576D03*
X725000Y324000D03*
X760000Y320000D03*
X549000Y280000D03*
X573000Y314000D03*
X594000Y319000D03*
X366000Y22000D03*
X601000Y236000D03*
X807000Y306000D03*
X553000Y605000D03*
X556000Y685000D03*
X367000Y779088D03*
X780000Y790000D03*
X715000Y790000D03*
X656000Y791000D03*
X596000Y789000D03*
X630000Y301000D03*
X544000Y235000D03*
X742000Y678000D03*
X375000Y13942D03*
X674751Y173424D03*
X133829Y207664D03*
X86000Y101274D03*
X205944Y161702D03*
X149965Y177526D03*
X370000Y66000D03*
X697000Y159256D03*
X719000Y94000D03*
X518000Y345000D03*
X780000Y180000D03*
X750000Y570000D03*
X794000Y734000D03*
X779000Y660000D03*
X780000Y620000D03*
X800000Y590000D03*
X740000Y690000D03*
M02*
