G04 EAGLE Gerber RS-274X export*
G75*
%MOMM*%
%FSLAX34Y34*%
%LPD*%
%INEAGLE Copper Layer 2*%
%IPPOS*%
%AMOC8*
5,1,8,0,0,1.08239X$1,22.5*%
G01*
%ADD10C,4.013200*%
%ADD11C,1.524000*%
%ADD12C,1.308000*%
%ADD13C,4.616000*%
%ADD14C,0.756400*%

G36*
X340020Y10164D02*
X340020Y10164D01*
X340039Y10162D01*
X340141Y10184D01*
X340243Y10200D01*
X340260Y10210D01*
X340280Y10214D01*
X340369Y10267D01*
X340460Y10316D01*
X340474Y10330D01*
X340491Y10340D01*
X340558Y10419D01*
X340630Y10494D01*
X340638Y10512D01*
X340651Y10527D01*
X340690Y10623D01*
X340733Y10717D01*
X340735Y10737D01*
X340743Y10755D01*
X340761Y10922D01*
X340761Y159239D01*
X359239Y159239D01*
X359239Y10922D01*
X359242Y10902D01*
X359240Y10883D01*
X359262Y10781D01*
X359279Y10679D01*
X359288Y10662D01*
X359292Y10642D01*
X359345Y10553D01*
X359394Y10462D01*
X359408Y10448D01*
X359418Y10431D01*
X359497Y10364D01*
X359572Y10292D01*
X359590Y10284D01*
X359605Y10271D01*
X359701Y10232D01*
X359795Y10189D01*
X359815Y10187D01*
X359833Y10179D01*
X360000Y10161D01*
X369439Y10161D01*
X369509Y10172D01*
X369581Y10174D01*
X369630Y10192D01*
X369681Y10200D01*
X369745Y10234D01*
X369812Y10259D01*
X369853Y10291D01*
X369899Y10316D01*
X369948Y10368D01*
X370004Y10412D01*
X370032Y10456D01*
X370068Y10494D01*
X370098Y10559D01*
X370137Y10619D01*
X370150Y10670D01*
X370172Y10717D01*
X370180Y10788D01*
X370197Y10858D01*
X370193Y10910D01*
X370199Y10961D01*
X370184Y11032D01*
X370178Y11103D01*
X370158Y11151D01*
X370147Y11202D01*
X370110Y11263D01*
X370082Y11329D01*
X370037Y11385D01*
X370020Y11413D01*
X370003Y11428D01*
X369977Y11460D01*
X369693Y11744D01*
X369693Y16140D01*
X372802Y19249D01*
X377198Y19249D01*
X380307Y16140D01*
X380307Y11744D01*
X380023Y11460D01*
X379981Y11402D01*
X379932Y11350D01*
X379910Y11303D01*
X379880Y11261D01*
X379858Y11192D01*
X379828Y11127D01*
X379823Y11075D01*
X379807Y11025D01*
X379809Y10954D01*
X379801Y10883D01*
X379812Y10832D01*
X379814Y10780D01*
X379838Y10712D01*
X379853Y10642D01*
X379880Y10597D01*
X379898Y10549D01*
X379943Y10493D01*
X379980Y10431D01*
X380019Y10397D01*
X380052Y10357D01*
X380112Y10318D01*
X380167Y10271D01*
X380215Y10252D01*
X380259Y10224D01*
X380328Y10206D01*
X380395Y10179D01*
X380466Y10171D01*
X380497Y10163D01*
X380520Y10165D01*
X380561Y10161D01*
X885078Y10161D01*
X885098Y10164D01*
X885117Y10162D01*
X885219Y10184D01*
X885321Y10200D01*
X885338Y10210D01*
X885358Y10214D01*
X885447Y10267D01*
X885538Y10316D01*
X885552Y10330D01*
X885569Y10340D01*
X885636Y10419D01*
X885708Y10494D01*
X885716Y10512D01*
X885729Y10527D01*
X885768Y10623D01*
X885811Y10717D01*
X885813Y10737D01*
X885821Y10755D01*
X885839Y10922D01*
X885839Y929078D01*
X885836Y929098D01*
X885838Y929117D01*
X885816Y929219D01*
X885800Y929321D01*
X885790Y929338D01*
X885786Y929358D01*
X885733Y929447D01*
X885684Y929538D01*
X885670Y929552D01*
X885660Y929569D01*
X885581Y929636D01*
X885506Y929708D01*
X885488Y929716D01*
X885473Y929729D01*
X885377Y929768D01*
X885283Y929811D01*
X885263Y929813D01*
X885245Y929821D01*
X885078Y929839D01*
X360000Y929839D01*
X359980Y929836D01*
X359961Y929838D01*
X359859Y929816D01*
X359757Y929800D01*
X359740Y929790D01*
X359720Y929786D01*
X359631Y929733D01*
X359540Y929684D01*
X359526Y929670D01*
X359509Y929660D01*
X359442Y929581D01*
X359371Y929506D01*
X359362Y929488D01*
X359349Y929473D01*
X359310Y929377D01*
X359267Y929283D01*
X359265Y929263D01*
X359257Y929245D01*
X359239Y929078D01*
X359239Y723581D01*
X359254Y723491D01*
X359261Y723400D01*
X359273Y723371D01*
X359279Y723339D01*
X359321Y723258D01*
X359357Y723174D01*
X359383Y723142D01*
X359394Y723121D01*
X359417Y723099D01*
X359462Y723043D01*
X361307Y721198D01*
X361307Y716802D01*
X359462Y714957D01*
X359409Y714883D01*
X359349Y714813D01*
X359337Y714783D01*
X359318Y714757D01*
X359291Y714670D01*
X359257Y714585D01*
X359253Y714544D01*
X359246Y714522D01*
X359247Y714490D01*
X359239Y714419D01*
X359239Y210761D01*
X340761Y210761D01*
X340761Y929078D01*
X340758Y929098D01*
X340760Y929117D01*
X340738Y929219D01*
X340722Y929321D01*
X340712Y929338D01*
X340708Y929358D01*
X340655Y929447D01*
X340606Y929538D01*
X340592Y929552D01*
X340582Y929569D01*
X340503Y929636D01*
X340428Y929708D01*
X340410Y929716D01*
X340395Y929729D01*
X340299Y929768D01*
X340205Y929811D01*
X340185Y929813D01*
X340167Y929821D01*
X340000Y929839D01*
X10922Y929839D01*
X10902Y929836D01*
X10883Y929838D01*
X10781Y929816D01*
X10679Y929800D01*
X10662Y929790D01*
X10642Y929786D01*
X10553Y929733D01*
X10462Y929684D01*
X10448Y929670D01*
X10431Y929660D01*
X10364Y929581D01*
X10292Y929506D01*
X10284Y929488D01*
X10271Y929473D01*
X10232Y929377D01*
X10189Y929283D01*
X10187Y929263D01*
X10179Y929245D01*
X10161Y929078D01*
X10161Y855922D01*
X10164Y855902D01*
X10162Y855883D01*
X10184Y855781D01*
X10200Y855679D01*
X10210Y855662D01*
X10214Y855642D01*
X10267Y855553D01*
X10316Y855462D01*
X10330Y855448D01*
X10340Y855431D01*
X10419Y855364D01*
X10494Y855292D01*
X10512Y855284D01*
X10527Y855271D01*
X10623Y855232D01*
X10717Y855189D01*
X10737Y855187D01*
X10755Y855179D01*
X10922Y855161D01*
X53721Y855161D01*
X57456Y853614D01*
X60314Y850756D01*
X61861Y847021D01*
X61861Y92979D01*
X60314Y89244D01*
X57456Y86386D01*
X53721Y84839D01*
X10922Y84839D01*
X10902Y84836D01*
X10883Y84838D01*
X10781Y84816D01*
X10679Y84800D01*
X10662Y84790D01*
X10642Y84786D01*
X10553Y84733D01*
X10462Y84684D01*
X10448Y84670D01*
X10431Y84660D01*
X10364Y84581D01*
X10292Y84506D01*
X10284Y84488D01*
X10271Y84473D01*
X10232Y84377D01*
X10189Y84283D01*
X10187Y84263D01*
X10179Y84245D01*
X10161Y84078D01*
X10161Y10922D01*
X10164Y10902D01*
X10162Y10883D01*
X10184Y10781D01*
X10200Y10679D01*
X10210Y10662D01*
X10214Y10642D01*
X10267Y10553D01*
X10316Y10462D01*
X10330Y10448D01*
X10340Y10431D01*
X10419Y10364D01*
X10494Y10292D01*
X10512Y10284D01*
X10527Y10271D01*
X10623Y10232D01*
X10717Y10189D01*
X10737Y10187D01*
X10755Y10179D01*
X10922Y10161D01*
X340000Y10161D01*
X340020Y10164D01*
G37*
%LPC*%
G36*
X45906Y873995D02*
X45906Y873995D01*
X36863Y877741D01*
X29941Y884663D01*
X26195Y893706D01*
X26195Y903494D01*
X29941Y912537D01*
X36863Y919459D01*
X45906Y923205D01*
X55694Y923205D01*
X64737Y919459D01*
X71659Y912537D01*
X75405Y903494D01*
X75405Y893706D01*
X71659Y884663D01*
X64737Y877741D01*
X55694Y873995D01*
X45906Y873995D01*
G37*
%LPD*%
%LPC*%
G36*
X71306Y16695D02*
X71306Y16695D01*
X62263Y20441D01*
X55341Y27363D01*
X51595Y36406D01*
X51595Y46194D01*
X55341Y55237D01*
X62263Y62159D01*
X71306Y65905D01*
X81094Y65905D01*
X90137Y62159D01*
X97059Y55237D01*
X100805Y46194D01*
X100805Y36406D01*
X97059Y27363D01*
X90137Y20441D01*
X81094Y16695D01*
X71306Y16695D01*
G37*
%LPD*%
%LPC*%
G36*
X413505Y170609D02*
X413505Y170609D01*
X405570Y173896D01*
X399496Y179970D01*
X396209Y187905D01*
X396209Y196495D01*
X399496Y204430D01*
X405570Y210504D01*
X413505Y213791D01*
X422095Y213791D01*
X430030Y210504D01*
X436104Y204430D01*
X439391Y196495D01*
X439391Y187905D01*
X436104Y179970D01*
X430030Y173896D01*
X422095Y170609D01*
X413505Y170609D01*
G37*
%LPD*%
%LPC*%
G36*
X814323Y42823D02*
X814323Y42823D01*
X814323Y66911D01*
X817099Y66599D01*
X817479Y66512D01*
X819904Y65958D01*
X822620Y65008D01*
X825213Y63759D01*
X827649Y62228D01*
X829899Y60434D01*
X831934Y58399D01*
X833728Y56149D01*
X835259Y53713D01*
X836508Y51120D01*
X837458Y48404D01*
X838099Y45599D01*
X838411Y42823D01*
X814323Y42823D01*
G37*
%LPD*%
%LPC*%
G36*
X852423Y900123D02*
X852423Y900123D01*
X852423Y924211D01*
X855199Y923899D01*
X856159Y923679D01*
X858004Y923258D01*
X860720Y922308D01*
X863313Y921059D01*
X865749Y919528D01*
X867999Y917734D01*
X870034Y915699D01*
X871828Y913449D01*
X873359Y911013D01*
X874608Y908420D01*
X875558Y905704D01*
X876199Y902899D01*
X876511Y900123D01*
X852423Y900123D01*
G37*
%LPD*%
%LPC*%
G36*
X825289Y900123D02*
X825289Y900123D01*
X825601Y902899D01*
X826242Y905704D01*
X827192Y908420D01*
X828441Y911013D01*
X829972Y913449D01*
X831766Y915699D01*
X833801Y917734D01*
X836051Y919528D01*
X838487Y921059D01*
X841080Y922308D01*
X843796Y923258D01*
X846601Y923899D01*
X849377Y924211D01*
X849377Y900123D01*
X825289Y900123D01*
G37*
%LPD*%
%LPC*%
G36*
X852423Y897077D02*
X852423Y897077D01*
X876511Y897077D01*
X876199Y894301D01*
X875558Y891496D01*
X874608Y888780D01*
X873359Y886187D01*
X871828Y883751D01*
X870034Y881501D01*
X867999Y879466D01*
X865749Y877672D01*
X863313Y876141D01*
X860720Y874892D01*
X858004Y873942D01*
X855199Y873301D01*
X852423Y872989D01*
X852423Y897077D01*
G37*
%LPD*%
%LPC*%
G36*
X814323Y39777D02*
X814323Y39777D01*
X838411Y39777D01*
X838099Y37001D01*
X837458Y34196D01*
X836508Y31480D01*
X835259Y28887D01*
X833728Y26451D01*
X831934Y24201D01*
X829899Y22166D01*
X827649Y20372D01*
X825213Y18841D01*
X822620Y17592D01*
X819904Y16642D01*
X817099Y16001D01*
X814323Y15689D01*
X814323Y39777D01*
G37*
%LPD*%
%LPC*%
G36*
X787189Y42823D02*
X787189Y42823D01*
X787501Y45599D01*
X788142Y48404D01*
X789092Y51120D01*
X790341Y53713D01*
X791872Y56149D01*
X793666Y58399D01*
X795701Y60434D01*
X797951Y62228D01*
X800387Y63759D01*
X802980Y65008D01*
X805696Y65958D01*
X808501Y66599D01*
X811277Y66911D01*
X811277Y42823D01*
X787189Y42823D01*
G37*
%LPD*%
%LPC*%
G36*
X846601Y873301D02*
X846601Y873301D01*
X846171Y873400D01*
X843796Y873942D01*
X841080Y874892D01*
X838487Y876141D01*
X836051Y877672D01*
X833801Y879466D01*
X831766Y881501D01*
X829972Y883751D01*
X828441Y886187D01*
X827192Y888780D01*
X826242Y891496D01*
X825601Y894301D01*
X825289Y897077D01*
X849377Y897077D01*
X849377Y872989D01*
X846601Y873301D01*
G37*
%LPD*%
%LPC*%
G36*
X808501Y16001D02*
X808501Y16001D01*
X807491Y16232D01*
X807490Y16232D01*
X805696Y16642D01*
X802980Y17592D01*
X800387Y18841D01*
X797951Y20372D01*
X795701Y22166D01*
X793666Y24201D01*
X791872Y26451D01*
X790341Y28887D01*
X789092Y31480D01*
X788142Y34196D01*
X787501Y37001D01*
X787189Y39777D01*
X811277Y39777D01*
X811277Y15689D01*
X808501Y16001D01*
G37*
%LPD*%
%LPC*%
G36*
X466323Y163723D02*
X466323Y163723D01*
X466323Y184778D01*
X468593Y184522D01*
X468667Y184505D01*
X471068Y183957D01*
X473465Y183119D01*
X475753Y182017D01*
X477903Y180666D01*
X479888Y179083D01*
X481683Y177288D01*
X483266Y175303D01*
X484617Y173153D01*
X485719Y170865D01*
X486557Y168468D01*
X487122Y165993D01*
X487378Y163723D01*
X466323Y163723D01*
G37*
%LPD*%
%LPC*%
G36*
X419323Y133723D02*
X419323Y133723D01*
X419323Y154778D01*
X421593Y154522D01*
X423639Y154055D01*
X424068Y153957D01*
X426465Y153119D01*
X428753Y152017D01*
X430903Y150666D01*
X432888Y149083D01*
X434683Y147288D01*
X436266Y145303D01*
X437617Y143153D01*
X438719Y140865D01*
X439557Y138468D01*
X440122Y135993D01*
X440378Y133723D01*
X419323Y133723D01*
G37*
%LPD*%
%LPC*%
G36*
X442222Y163723D02*
X442222Y163723D01*
X442478Y165993D01*
X443043Y168468D01*
X443881Y170865D01*
X444983Y173153D01*
X446334Y175303D01*
X447917Y177288D01*
X449712Y179083D01*
X451697Y180666D01*
X453847Y182017D01*
X456135Y183119D01*
X458532Y183957D01*
X461007Y184522D01*
X463277Y184778D01*
X463277Y163723D01*
X442222Y163723D01*
G37*
%LPD*%
%LPC*%
G36*
X395222Y133723D02*
X395222Y133723D01*
X395478Y135993D01*
X396043Y138468D01*
X396881Y140865D01*
X397983Y143153D01*
X399334Y145303D01*
X400917Y147288D01*
X402712Y149083D01*
X404697Y150666D01*
X406847Y152017D01*
X409135Y153119D01*
X411532Y153957D01*
X414007Y154522D01*
X416277Y154778D01*
X416277Y133723D01*
X395222Y133723D01*
G37*
%LPD*%
%LPC*%
G36*
X419323Y130677D02*
X419323Y130677D01*
X440378Y130677D01*
X440122Y128407D01*
X439557Y125932D01*
X438719Y123535D01*
X437617Y121247D01*
X436266Y119097D01*
X434683Y117112D01*
X432888Y115317D01*
X430903Y113734D01*
X428753Y112383D01*
X426465Y111281D01*
X424068Y110443D01*
X421593Y109878D01*
X419323Y109622D01*
X419323Y130677D01*
G37*
%LPD*%
%LPC*%
G36*
X466323Y160677D02*
X466323Y160677D01*
X487378Y160677D01*
X487122Y158407D01*
X486557Y155932D01*
X485719Y153535D01*
X484617Y151247D01*
X483266Y149097D01*
X481683Y147112D01*
X479888Y145317D01*
X477903Y143734D01*
X475753Y142383D01*
X473465Y141281D01*
X471068Y140443D01*
X468593Y139878D01*
X466323Y139622D01*
X466323Y160677D01*
G37*
%LPD*%
%LPC*%
G36*
X461007Y139878D02*
X461007Y139878D01*
X459086Y140316D01*
X458532Y140443D01*
X456135Y141281D01*
X453847Y142383D01*
X451697Y143734D01*
X449712Y145317D01*
X447917Y147112D01*
X446334Y149097D01*
X444983Y151247D01*
X443881Y153535D01*
X443043Y155932D01*
X442478Y158407D01*
X442222Y160677D01*
X463277Y160677D01*
X463277Y139622D01*
X461007Y139878D01*
G37*
%LPD*%
%LPC*%
G36*
X414007Y109878D02*
X414007Y109878D01*
X411532Y110443D01*
X409135Y111281D01*
X406847Y112383D01*
X404697Y113734D01*
X402712Y115317D01*
X400917Y117112D01*
X399334Y119097D01*
X397983Y121247D01*
X396881Y123535D01*
X396043Y125932D01*
X395478Y128407D01*
X395222Y130677D01*
X416277Y130677D01*
X416277Y109622D01*
X414007Y109878D01*
G37*
%LPD*%
%LPC*%
G36*
X243181Y612855D02*
X243181Y612855D01*
X239820Y614247D01*
X237247Y616820D01*
X235855Y620181D01*
X235855Y623819D01*
X237247Y627180D01*
X239820Y629753D01*
X243181Y631145D01*
X246819Y631145D01*
X250180Y629753D01*
X252753Y627180D01*
X254145Y623819D01*
X254145Y620181D01*
X252753Y616820D01*
X250180Y614247D01*
X246819Y612855D01*
X243181Y612855D01*
G37*
%LPD*%
%LPC*%
G36*
X71781Y368955D02*
X71781Y368955D01*
X68420Y370347D01*
X65847Y372920D01*
X64455Y376281D01*
X64455Y379919D01*
X65847Y383280D01*
X68420Y385853D01*
X71781Y387245D01*
X75419Y387245D01*
X78780Y385853D01*
X81353Y383280D01*
X82745Y379919D01*
X82745Y376281D01*
X81353Y372920D01*
X78780Y370347D01*
X75419Y368955D01*
X71781Y368955D01*
G37*
%LPD*%
%LPC*%
G36*
X549881Y107955D02*
X549881Y107955D01*
X546520Y109347D01*
X543947Y111920D01*
X542555Y115281D01*
X542555Y118919D01*
X543947Y122280D01*
X546520Y124853D01*
X549881Y126245D01*
X553519Y126245D01*
X556880Y124853D01*
X559453Y122280D01*
X560845Y118919D01*
X560845Y115281D01*
X559453Y111920D01*
X556880Y109347D01*
X553519Y107955D01*
X549881Y107955D01*
G37*
%LPD*%
%LPC*%
G36*
X288181Y730855D02*
X288181Y730855D01*
X284820Y732247D01*
X282247Y734820D01*
X280855Y738181D01*
X280855Y741819D01*
X282247Y745180D01*
X284820Y747753D01*
X288181Y749145D01*
X291819Y749145D01*
X295180Y747753D01*
X297753Y745180D01*
X299145Y741819D01*
X299145Y738181D01*
X297753Y734820D01*
X295180Y732247D01*
X291819Y730855D01*
X288181Y730855D01*
G37*
%LPD*%
%LPC*%
G36*
X175881Y788155D02*
X175881Y788155D01*
X172520Y789547D01*
X169947Y792120D01*
X168555Y795481D01*
X168555Y799119D01*
X169947Y802480D01*
X172520Y805053D01*
X175881Y806445D01*
X179519Y806445D01*
X182880Y805053D01*
X185453Y802480D01*
X186845Y799119D01*
X186845Y795481D01*
X185453Y792120D01*
X182880Y789547D01*
X179519Y788155D01*
X175881Y788155D01*
G37*
%LPD*%
%LPC*%
G36*
X150481Y788155D02*
X150481Y788155D01*
X147120Y789547D01*
X144547Y792120D01*
X143155Y795481D01*
X143155Y799119D01*
X144547Y802480D01*
X147120Y805053D01*
X150481Y806445D01*
X154119Y806445D01*
X157480Y805053D01*
X160053Y802480D01*
X161445Y799119D01*
X161445Y795481D01*
X160053Y792120D01*
X157480Y789547D01*
X154119Y788155D01*
X150481Y788155D01*
G37*
%LPD*%
%LPC*%
G36*
X228181Y810855D02*
X228181Y810855D01*
X224820Y812247D01*
X222247Y814820D01*
X220855Y818181D01*
X220855Y821819D01*
X222247Y825180D01*
X224820Y827753D01*
X228181Y829145D01*
X231819Y829145D01*
X235180Y827753D01*
X237753Y825180D01*
X239145Y821819D01*
X239145Y818181D01*
X237753Y814820D01*
X235180Y812247D01*
X231819Y810855D01*
X228181Y810855D01*
G37*
%LPD*%
%LPC*%
G36*
X713581Y850855D02*
X713581Y850855D01*
X710220Y852247D01*
X707647Y854820D01*
X706255Y858181D01*
X706255Y861819D01*
X707647Y865180D01*
X710220Y867753D01*
X713581Y869145D01*
X717219Y869145D01*
X720580Y867753D01*
X723153Y865180D01*
X724545Y861819D01*
X724545Y858181D01*
X723153Y854820D01*
X720580Y852247D01*
X717219Y850855D01*
X713581Y850855D01*
G37*
%LPD*%
%LPC*%
G36*
X653581Y850855D02*
X653581Y850855D01*
X650220Y852247D01*
X647647Y854820D01*
X646255Y858181D01*
X646255Y861819D01*
X647647Y865180D01*
X650220Y867753D01*
X653581Y869145D01*
X657219Y869145D01*
X660580Y867753D01*
X663153Y865180D01*
X664545Y861819D01*
X664545Y858181D01*
X663153Y854820D01*
X660580Y852247D01*
X657219Y850855D01*
X653581Y850855D01*
G37*
%LPD*%
%LPC*%
G36*
X593581Y850855D02*
X593581Y850855D01*
X590220Y852247D01*
X587647Y854820D01*
X586255Y858181D01*
X586255Y861819D01*
X587647Y865180D01*
X590220Y867753D01*
X593581Y869145D01*
X597219Y869145D01*
X600580Y867753D01*
X603153Y865180D01*
X604545Y861819D01*
X604545Y858181D01*
X603153Y854820D01*
X600580Y852247D01*
X597219Y850855D01*
X593581Y850855D01*
G37*
%LPD*%
%LPC*%
G36*
X228681Y266955D02*
X228681Y266955D01*
X225320Y268347D01*
X222747Y270920D01*
X221355Y274281D01*
X221355Y277919D01*
X222747Y281280D01*
X225320Y283853D01*
X228681Y285245D01*
X232319Y285245D01*
X235680Y283853D01*
X238253Y281280D01*
X239645Y277919D01*
X239645Y274281D01*
X238253Y270920D01*
X235680Y268347D01*
X232319Y266955D01*
X228681Y266955D01*
G37*
%LPD*%
%LPC*%
G36*
X417181Y228855D02*
X417181Y228855D01*
X413820Y230247D01*
X411247Y232820D01*
X409855Y236181D01*
X409855Y239819D01*
X411247Y243180D01*
X413820Y245753D01*
X417181Y247145D01*
X420819Y247145D01*
X424180Y245753D01*
X426753Y243180D01*
X428145Y239819D01*
X428145Y236181D01*
X426753Y232820D01*
X424180Y230247D01*
X420819Y228855D01*
X417181Y228855D01*
G37*
%LPD*%
%LPC*%
G36*
X773581Y850855D02*
X773581Y850855D01*
X770220Y852247D01*
X767647Y854820D01*
X766255Y858181D01*
X766255Y861819D01*
X767647Y865180D01*
X770220Y867753D01*
X773581Y869145D01*
X777219Y869145D01*
X780580Y867753D01*
X783153Y865180D01*
X784545Y861819D01*
X784545Y858181D01*
X783153Y854820D01*
X780580Y852247D01*
X777219Y850855D01*
X773581Y850855D01*
G37*
%LPD*%
%LPC*%
G36*
X806081Y216955D02*
X806081Y216955D01*
X802720Y218347D01*
X800147Y220920D01*
X798755Y224281D01*
X798755Y227919D01*
X800147Y231280D01*
X802720Y233853D01*
X806081Y235245D01*
X809719Y235245D01*
X813080Y233853D01*
X815653Y231280D01*
X817045Y227919D01*
X817045Y224281D01*
X815653Y220920D01*
X813080Y218347D01*
X809719Y216955D01*
X806081Y216955D01*
G37*
%LPD*%
%LPC*%
G36*
X742981Y189955D02*
X742981Y189955D01*
X739620Y191347D01*
X737047Y193920D01*
X735655Y197281D01*
X735655Y200919D01*
X737047Y204280D01*
X739620Y206853D01*
X742981Y208245D01*
X746619Y208245D01*
X749980Y206853D01*
X752553Y204280D01*
X753945Y200919D01*
X753945Y197281D01*
X752553Y193920D01*
X749980Y191347D01*
X746619Y189955D01*
X742981Y189955D01*
G37*
%LPD*%
%LPC*%
G36*
X509796Y490835D02*
X509796Y490835D01*
X506832Y492063D01*
X504563Y494332D01*
X503335Y497296D01*
X503335Y500504D01*
X504563Y503468D01*
X506832Y505737D01*
X509796Y506965D01*
X513004Y506965D01*
X515968Y505737D01*
X518237Y503468D01*
X519465Y500504D01*
X519465Y497296D01*
X518237Y494332D01*
X515968Y492063D01*
X513004Y490835D01*
X509796Y490835D01*
G37*
%LPD*%
%LPC*%
G36*
X738396Y516235D02*
X738396Y516235D01*
X735432Y517463D01*
X733163Y519732D01*
X731935Y522696D01*
X731935Y525904D01*
X733163Y528868D01*
X735432Y531137D01*
X738396Y532365D01*
X741604Y532365D01*
X744568Y531137D01*
X746837Y528868D01*
X748065Y525904D01*
X748065Y522696D01*
X746837Y519732D01*
X744568Y517463D01*
X741604Y516235D01*
X738396Y516235D01*
G37*
%LPD*%
%LPC*%
G36*
X509796Y389235D02*
X509796Y389235D01*
X506832Y390463D01*
X504563Y392732D01*
X503335Y395696D01*
X503335Y398904D01*
X504563Y401868D01*
X506832Y404137D01*
X509796Y405365D01*
X513004Y405365D01*
X515968Y404137D01*
X518237Y401868D01*
X519465Y398904D01*
X519465Y395696D01*
X518237Y392732D01*
X515968Y390463D01*
X513004Y389235D01*
X509796Y389235D01*
G37*
%LPD*%
%LPC*%
G36*
X814596Y389235D02*
X814596Y389235D01*
X811632Y390463D01*
X809363Y392732D01*
X808135Y395696D01*
X808135Y398904D01*
X809363Y401868D01*
X811632Y404137D01*
X814596Y405365D01*
X817804Y405365D01*
X820768Y404137D01*
X823037Y401868D01*
X824265Y398904D01*
X824265Y395696D01*
X823037Y392732D01*
X820768Y390463D01*
X817804Y389235D01*
X814596Y389235D01*
G37*
%LPD*%
%LPC*%
G36*
X509796Y414635D02*
X509796Y414635D01*
X506832Y415863D01*
X504563Y418132D01*
X503335Y421096D01*
X503335Y424304D01*
X504563Y427268D01*
X506832Y429537D01*
X509796Y430765D01*
X513004Y430765D01*
X515968Y429537D01*
X518237Y427268D01*
X519465Y424304D01*
X519465Y421096D01*
X518237Y418132D01*
X515968Y415863D01*
X513004Y414635D01*
X509796Y414635D01*
G37*
%LPD*%
%LPC*%
G36*
X636796Y516235D02*
X636796Y516235D01*
X633832Y517463D01*
X631563Y519732D01*
X630335Y522696D01*
X630335Y525904D01*
X631563Y528868D01*
X633832Y531137D01*
X636796Y532365D01*
X640004Y532365D01*
X642968Y531137D01*
X645237Y528868D01*
X646465Y525904D01*
X646465Y522696D01*
X645237Y519732D01*
X642968Y517463D01*
X640004Y516235D01*
X636796Y516235D01*
G37*
%LPD*%
%LPC*%
G36*
X662196Y516235D02*
X662196Y516235D01*
X659232Y517463D01*
X656963Y519732D01*
X655735Y522696D01*
X655735Y525904D01*
X656963Y528868D01*
X659232Y531137D01*
X662196Y532365D01*
X665404Y532365D01*
X668368Y531137D01*
X670637Y528868D01*
X671865Y525904D01*
X671865Y522696D01*
X670637Y519732D01*
X668368Y517463D01*
X665404Y516235D01*
X662196Y516235D01*
G37*
%LPD*%
%LPC*%
G36*
X509796Y465435D02*
X509796Y465435D01*
X506832Y466663D01*
X504563Y468932D01*
X503335Y471896D01*
X503335Y475104D01*
X504563Y478068D01*
X506832Y480337D01*
X509796Y481565D01*
X513004Y481565D01*
X515968Y480337D01*
X518237Y478068D01*
X519465Y475104D01*
X519465Y471896D01*
X518237Y468932D01*
X515968Y466663D01*
X513004Y465435D01*
X509796Y465435D01*
G37*
%LPD*%
%LPC*%
G36*
X611396Y516235D02*
X611396Y516235D01*
X608432Y517463D01*
X606163Y519732D01*
X604935Y522696D01*
X604935Y525904D01*
X606163Y528868D01*
X608432Y531137D01*
X611396Y532365D01*
X614604Y532365D01*
X617568Y531137D01*
X619837Y528868D01*
X621065Y525904D01*
X621065Y522696D01*
X619837Y519732D01*
X617568Y517463D01*
X614604Y516235D01*
X611396Y516235D01*
G37*
%LPD*%
%LPC*%
G36*
X789196Y516235D02*
X789196Y516235D01*
X786232Y517463D01*
X783963Y519732D01*
X782735Y522696D01*
X782735Y525904D01*
X783963Y528868D01*
X786232Y531137D01*
X789196Y532365D01*
X792404Y532365D01*
X795368Y531137D01*
X797637Y528868D01*
X798865Y525904D01*
X798865Y522696D01*
X797637Y519732D01*
X795368Y517463D01*
X792404Y516235D01*
X789196Y516235D01*
G37*
%LPD*%
%LPC*%
G36*
X814596Y516235D02*
X814596Y516235D01*
X811632Y517463D01*
X809363Y519732D01*
X808135Y522696D01*
X808135Y525904D01*
X809363Y528868D01*
X811632Y531137D01*
X814596Y532365D01*
X817804Y532365D01*
X820768Y531137D01*
X823037Y528868D01*
X824265Y525904D01*
X824265Y522696D01*
X823037Y519732D01*
X820768Y517463D01*
X817804Y516235D01*
X814596Y516235D01*
G37*
%LPD*%
%LPC*%
G36*
X763796Y516235D02*
X763796Y516235D01*
X760832Y517463D01*
X758563Y519732D01*
X757335Y522696D01*
X757335Y525904D01*
X758563Y528868D01*
X760832Y531137D01*
X763796Y532365D01*
X767004Y532365D01*
X769968Y531137D01*
X772237Y528868D01*
X773465Y525904D01*
X773465Y522696D01*
X772237Y519732D01*
X769968Y517463D01*
X767004Y516235D01*
X763796Y516235D01*
G37*
%LPD*%
%LPC*%
G36*
X687596Y516235D02*
X687596Y516235D01*
X684632Y517463D01*
X682363Y519732D01*
X681135Y522696D01*
X681135Y525904D01*
X682363Y528868D01*
X684632Y531137D01*
X687596Y532365D01*
X690804Y532365D01*
X693768Y531137D01*
X696037Y528868D01*
X697265Y525904D01*
X697265Y522696D01*
X696037Y519732D01*
X693768Y517463D01*
X690804Y516235D01*
X687596Y516235D01*
G37*
%LPD*%
%LPC*%
G36*
X509796Y516235D02*
X509796Y516235D01*
X506832Y517463D01*
X504563Y519732D01*
X503335Y522696D01*
X503335Y525904D01*
X504563Y528868D01*
X506832Y531137D01*
X509796Y532365D01*
X513004Y532365D01*
X515968Y531137D01*
X518237Y528868D01*
X519465Y525904D01*
X519465Y522696D01*
X518237Y519732D01*
X515968Y517463D01*
X513004Y516235D01*
X509796Y516235D01*
G37*
%LPD*%
%LPC*%
G36*
X712996Y516235D02*
X712996Y516235D01*
X710032Y517463D01*
X707763Y519732D01*
X706535Y522696D01*
X706535Y525904D01*
X707763Y528868D01*
X710032Y531137D01*
X712996Y532365D01*
X716204Y532365D01*
X719168Y531137D01*
X721437Y528868D01*
X722665Y525904D01*
X722665Y522696D01*
X721437Y519732D01*
X719168Y517463D01*
X716204Y516235D01*
X712996Y516235D01*
G37*
%LPD*%
%LPC*%
G36*
X535196Y516235D02*
X535196Y516235D01*
X532232Y517463D01*
X529963Y519732D01*
X528735Y522696D01*
X528735Y525904D01*
X529963Y528868D01*
X532232Y531137D01*
X535196Y532365D01*
X538404Y532365D01*
X541368Y531137D01*
X543637Y528868D01*
X544865Y525904D01*
X544865Y522696D01*
X543637Y519732D01*
X541368Y517463D01*
X538404Y516235D01*
X535196Y516235D01*
G37*
%LPD*%
%LPC*%
G36*
X560596Y516235D02*
X560596Y516235D01*
X557632Y517463D01*
X555363Y519732D01*
X554135Y522696D01*
X554135Y525904D01*
X555363Y528868D01*
X557632Y531137D01*
X560596Y532365D01*
X563804Y532365D01*
X566768Y531137D01*
X569037Y528868D01*
X570265Y525904D01*
X570265Y522696D01*
X569037Y519732D01*
X566768Y517463D01*
X563804Y516235D01*
X560596Y516235D01*
G37*
%LPD*%
%LPC*%
G36*
X585996Y516235D02*
X585996Y516235D01*
X583032Y517463D01*
X580763Y519732D01*
X579535Y522696D01*
X579535Y525904D01*
X580763Y528868D01*
X583032Y531137D01*
X585996Y532365D01*
X589204Y532365D01*
X592168Y531137D01*
X594437Y528868D01*
X595665Y525904D01*
X595665Y522696D01*
X594437Y519732D01*
X592168Y517463D01*
X589204Y516235D01*
X585996Y516235D01*
G37*
%LPD*%
%LPC*%
G36*
X509796Y363835D02*
X509796Y363835D01*
X506832Y365063D01*
X504563Y367332D01*
X503335Y370296D01*
X503335Y373504D01*
X504563Y376468D01*
X506832Y378737D01*
X509796Y379965D01*
X513004Y379965D01*
X515968Y378737D01*
X518237Y376468D01*
X519465Y373504D01*
X519465Y370296D01*
X518237Y367332D01*
X515968Y365063D01*
X513004Y363835D01*
X509796Y363835D01*
G37*
%LPD*%
%LPC*%
G36*
X585996Y363835D02*
X585996Y363835D01*
X583032Y365063D01*
X580763Y367332D01*
X579535Y370296D01*
X579535Y373504D01*
X580763Y376468D01*
X583032Y378737D01*
X585996Y379965D01*
X589204Y379965D01*
X592168Y378737D01*
X594437Y376468D01*
X595665Y373504D01*
X595665Y370296D01*
X594437Y367332D01*
X592168Y365063D01*
X589204Y363835D01*
X585996Y363835D01*
G37*
%LPD*%
%LPC*%
G36*
X636796Y363835D02*
X636796Y363835D01*
X633832Y365063D01*
X631563Y367332D01*
X630335Y370296D01*
X630335Y373504D01*
X631563Y376468D01*
X633832Y378737D01*
X636796Y379965D01*
X640004Y379965D01*
X642968Y378737D01*
X645237Y376468D01*
X646465Y373504D01*
X646465Y370296D01*
X645237Y367332D01*
X642968Y365063D01*
X640004Y363835D01*
X636796Y363835D01*
G37*
%LPD*%
%LPC*%
G36*
X662196Y363835D02*
X662196Y363835D01*
X659232Y365063D01*
X656963Y367332D01*
X655735Y370296D01*
X655735Y373504D01*
X656963Y376468D01*
X659232Y378737D01*
X662196Y379965D01*
X665404Y379965D01*
X668368Y378737D01*
X670637Y376468D01*
X671865Y373504D01*
X671865Y370296D01*
X670637Y367332D01*
X668368Y365063D01*
X665404Y363835D01*
X662196Y363835D01*
G37*
%LPD*%
%LPC*%
G36*
X687596Y363835D02*
X687596Y363835D01*
X684632Y365063D01*
X682363Y367332D01*
X681135Y370296D01*
X681135Y373504D01*
X682363Y376468D01*
X684632Y378737D01*
X687596Y379965D01*
X690804Y379965D01*
X693768Y378737D01*
X696037Y376468D01*
X697265Y373504D01*
X697265Y370296D01*
X696037Y367332D01*
X693768Y365063D01*
X690804Y363835D01*
X687596Y363835D01*
G37*
%LPD*%
%LPC*%
G36*
X712996Y363835D02*
X712996Y363835D01*
X710032Y365063D01*
X707763Y367332D01*
X706535Y370296D01*
X706535Y373504D01*
X707763Y376468D01*
X710032Y378737D01*
X712996Y379965D01*
X716204Y379965D01*
X719168Y378737D01*
X721437Y376468D01*
X722665Y373504D01*
X722665Y370296D01*
X721437Y367332D01*
X719168Y365063D01*
X716204Y363835D01*
X712996Y363835D01*
G37*
%LPD*%
%LPC*%
G36*
X560596Y363835D02*
X560596Y363835D01*
X557632Y365063D01*
X555363Y367332D01*
X554135Y370296D01*
X554135Y373504D01*
X555363Y376468D01*
X557632Y378737D01*
X560596Y379965D01*
X563804Y379965D01*
X566768Y378737D01*
X569037Y376468D01*
X570265Y373504D01*
X570265Y370296D01*
X569037Y367332D01*
X566768Y365063D01*
X563804Y363835D01*
X560596Y363835D01*
G37*
%LPD*%
%LPC*%
G36*
X763796Y363835D02*
X763796Y363835D01*
X760832Y365063D01*
X758563Y367332D01*
X757335Y370296D01*
X757335Y373504D01*
X758563Y376468D01*
X760832Y378737D01*
X763796Y379965D01*
X767004Y379965D01*
X769968Y378737D01*
X772237Y376468D01*
X773465Y373504D01*
X773465Y370296D01*
X772237Y367332D01*
X769968Y365063D01*
X767004Y363835D01*
X763796Y363835D01*
G37*
%LPD*%
%LPC*%
G36*
X789196Y363835D02*
X789196Y363835D01*
X786232Y365063D01*
X783963Y367332D01*
X782735Y370296D01*
X782735Y373504D01*
X783963Y376468D01*
X786232Y378737D01*
X789196Y379965D01*
X792404Y379965D01*
X795368Y378737D01*
X797637Y376468D01*
X798865Y373504D01*
X798865Y370296D01*
X797637Y367332D01*
X795368Y365063D01*
X792404Y363835D01*
X789196Y363835D01*
G37*
%LPD*%
%LPC*%
G36*
X611396Y363835D02*
X611396Y363835D01*
X608432Y365063D01*
X606163Y367332D01*
X604935Y370296D01*
X604935Y373504D01*
X606163Y376468D01*
X608432Y378737D01*
X611396Y379965D01*
X614604Y379965D01*
X617568Y378737D01*
X619837Y376468D01*
X621065Y373504D01*
X621065Y370296D01*
X619837Y367332D01*
X617568Y365063D01*
X614604Y363835D01*
X611396Y363835D01*
G37*
%LPD*%
%LPC*%
G36*
X839996Y363835D02*
X839996Y363835D01*
X837032Y365063D01*
X834763Y367332D01*
X833535Y370296D01*
X833535Y373504D01*
X834763Y376468D01*
X837032Y378737D01*
X839996Y379965D01*
X843204Y379965D01*
X846168Y378737D01*
X848437Y376468D01*
X849665Y373504D01*
X849665Y370296D01*
X848437Y367332D01*
X846168Y365063D01*
X843204Y363835D01*
X839996Y363835D01*
G37*
%LPD*%
%LPC*%
G36*
X535196Y363835D02*
X535196Y363835D01*
X532232Y365063D01*
X529963Y367332D01*
X528735Y370296D01*
X528735Y373504D01*
X529963Y376468D01*
X532232Y378737D01*
X535196Y379965D01*
X538404Y379965D01*
X541368Y378737D01*
X543637Y376468D01*
X544865Y373504D01*
X544865Y370296D01*
X543637Y367332D01*
X541368Y365063D01*
X538404Y363835D01*
X535196Y363835D01*
G37*
%LPD*%
%LPC*%
G36*
X738396Y363835D02*
X738396Y363835D01*
X735432Y365063D01*
X733163Y367332D01*
X731935Y370296D01*
X731935Y373504D01*
X733163Y376468D01*
X735432Y378737D01*
X738396Y379965D01*
X741604Y379965D01*
X744568Y378737D01*
X746837Y376468D01*
X748065Y373504D01*
X748065Y370296D01*
X746837Y367332D01*
X744568Y365063D01*
X741604Y363835D01*
X738396Y363835D01*
G37*
%LPD*%
%LPC*%
G36*
X739802Y672693D02*
X739802Y672693D01*
X736693Y675802D01*
X736693Y680198D01*
X739889Y683394D01*
X739931Y683452D01*
X739980Y683504D01*
X740002Y683551D01*
X740032Y683593D01*
X740054Y683662D01*
X740084Y683727D01*
X740089Y683779D01*
X740105Y683829D01*
X740103Y683900D01*
X740111Y683971D01*
X740100Y684022D01*
X740098Y684074D01*
X740074Y684142D01*
X740059Y684212D01*
X740032Y684257D01*
X740014Y684305D01*
X739969Y684361D01*
X739932Y684423D01*
X739893Y684457D01*
X739860Y684497D01*
X739800Y684536D01*
X739745Y684583D01*
X739697Y684602D01*
X739653Y684630D01*
X739584Y684648D01*
X739517Y684675D01*
X739446Y684683D01*
X739415Y684691D01*
X739392Y684689D01*
X739351Y684693D01*
X737802Y684693D01*
X734693Y687802D01*
X734693Y692198D01*
X737802Y695307D01*
X742198Y695307D01*
X745307Y692198D01*
X745307Y687802D01*
X742111Y684606D01*
X742069Y684548D01*
X742020Y684496D01*
X741998Y684449D01*
X741968Y684407D01*
X741946Y684338D01*
X741916Y684273D01*
X741911Y684221D01*
X741895Y684171D01*
X741897Y684100D01*
X741889Y684029D01*
X741900Y683978D01*
X741902Y683926D01*
X741926Y683858D01*
X741941Y683788D01*
X741968Y683743D01*
X741986Y683695D01*
X742031Y683639D01*
X742068Y683577D01*
X742107Y683543D01*
X742140Y683503D01*
X742200Y683464D01*
X742255Y683417D01*
X742303Y683398D01*
X742347Y683370D01*
X742416Y683352D01*
X742483Y683325D01*
X742554Y683317D01*
X742585Y683309D01*
X742608Y683311D01*
X742649Y683307D01*
X744198Y683307D01*
X747307Y680198D01*
X747307Y675802D01*
X744198Y672693D01*
X739802Y672693D01*
G37*
%LPD*%
%LPC*%
G36*
X147767Y172219D02*
X147767Y172219D01*
X144658Y175328D01*
X144658Y179724D01*
X147767Y182833D01*
X152163Y182833D01*
X155272Y179724D01*
X155272Y175328D01*
X152163Y172219D01*
X147767Y172219D01*
G37*
%LPD*%
%LPC*%
G36*
X777802Y174693D02*
X777802Y174693D01*
X774693Y177802D01*
X774693Y182198D01*
X777802Y185307D01*
X782198Y185307D01*
X785307Y182198D01*
X785307Y177802D01*
X782198Y174693D01*
X777802Y174693D01*
G37*
%LPD*%
%LPC*%
G36*
X131630Y202357D02*
X131630Y202357D01*
X128522Y205466D01*
X128522Y209862D01*
X131630Y212971D01*
X136027Y212971D01*
X139135Y209862D01*
X139135Y205466D01*
X136027Y202357D01*
X131630Y202357D01*
G37*
%LPD*%
%LPC*%
G36*
X541802Y229693D02*
X541802Y229693D01*
X538693Y232802D01*
X538693Y237198D01*
X541802Y240307D01*
X546198Y240307D01*
X549307Y237198D01*
X549307Y232802D01*
X546198Y229693D01*
X541802Y229693D01*
G37*
%LPD*%
%LPC*%
G36*
X627802Y295693D02*
X627802Y295693D01*
X624693Y298802D01*
X624693Y303198D01*
X627802Y306307D01*
X632198Y306307D01*
X635307Y303198D01*
X635307Y298802D01*
X632198Y295693D01*
X627802Y295693D01*
G37*
%LPD*%
%LPC*%
G36*
X804802Y300693D02*
X804802Y300693D01*
X801693Y303802D01*
X801693Y308198D01*
X804802Y311307D01*
X809198Y311307D01*
X812307Y308198D01*
X812307Y303802D01*
X809198Y300693D01*
X804802Y300693D01*
G37*
%LPD*%
%LPC*%
G36*
X672553Y168117D02*
X672553Y168117D01*
X669444Y171226D01*
X669444Y175622D01*
X672553Y178731D01*
X676949Y178731D01*
X680058Y175622D01*
X680058Y171226D01*
X676949Y168117D01*
X672553Y168117D01*
G37*
%LPD*%
%LPC*%
G36*
X515802Y339693D02*
X515802Y339693D01*
X512693Y342802D01*
X512693Y347198D01*
X515802Y350307D01*
X520198Y350307D01*
X523307Y347198D01*
X523307Y342802D01*
X520198Y339693D01*
X515802Y339693D01*
G37*
%LPD*%
%LPC*%
G36*
X203746Y156395D02*
X203746Y156395D01*
X200637Y159504D01*
X200637Y163900D01*
X203746Y167008D01*
X208142Y167008D01*
X211251Y163900D01*
X211251Y159504D01*
X208142Y156395D01*
X203746Y156395D01*
G37*
%LPD*%
%LPC*%
G36*
X694802Y153949D02*
X694802Y153949D01*
X691693Y157058D01*
X691693Y161454D01*
X694802Y164563D01*
X699198Y164563D01*
X702307Y161454D01*
X702307Y157058D01*
X699198Y153949D01*
X694802Y153949D01*
G37*
%LPD*%
%LPC*%
G36*
X716802Y88693D02*
X716802Y88693D01*
X713693Y91802D01*
X713693Y96198D01*
X716802Y99307D01*
X721198Y99307D01*
X724307Y96198D01*
X724307Y91802D01*
X721198Y88693D01*
X716802Y88693D01*
G37*
%LPD*%
%LPC*%
G36*
X83802Y95967D02*
X83802Y95967D01*
X80693Y99076D01*
X80693Y103472D01*
X83802Y106581D01*
X88198Y106581D01*
X91307Y103472D01*
X91307Y99076D01*
X88198Y95967D01*
X83802Y95967D01*
G37*
%LPD*%
%LPC*%
G36*
X593802Y608693D02*
X593802Y608693D01*
X590693Y611802D01*
X590693Y616198D01*
X593802Y619307D01*
X598198Y619307D01*
X601307Y616198D01*
X601307Y611802D01*
X598198Y608693D01*
X593802Y608693D01*
G37*
%LPD*%
%LPC*%
G36*
X367802Y60693D02*
X367802Y60693D01*
X364693Y63802D01*
X364693Y68198D01*
X367802Y71307D01*
X372198Y71307D01*
X375307Y68198D01*
X375307Y63802D01*
X372198Y60693D01*
X367802Y60693D01*
G37*
%LPD*%
%LPC*%
G36*
X553802Y679693D02*
X553802Y679693D01*
X550693Y682802D01*
X550693Y687198D01*
X553802Y690307D01*
X558198Y690307D01*
X561307Y687198D01*
X561307Y682802D01*
X558198Y679693D01*
X553802Y679693D01*
G37*
%LPD*%
%LPC*%
G36*
X776802Y654693D02*
X776802Y654693D01*
X773693Y657802D01*
X773693Y662198D01*
X776802Y665307D01*
X781198Y665307D01*
X784307Y662198D01*
X784307Y657802D01*
X781198Y654693D01*
X776802Y654693D01*
G37*
%LPD*%
%LPC*%
G36*
X791802Y728693D02*
X791802Y728693D01*
X788693Y731802D01*
X788693Y736198D01*
X791802Y739307D01*
X796198Y739307D01*
X799307Y736198D01*
X799307Y731802D01*
X796198Y728693D01*
X791802Y728693D01*
G37*
%LPD*%
%LPC*%
G36*
X660802Y620693D02*
X660802Y620693D01*
X657693Y623802D01*
X657693Y628198D01*
X660802Y631307D01*
X665198Y631307D01*
X668307Y628198D01*
X668307Y623802D01*
X665198Y620693D01*
X660802Y620693D01*
G37*
%LPD*%
%LPC*%
G36*
X777802Y614693D02*
X777802Y614693D01*
X774693Y617802D01*
X774693Y622198D01*
X777802Y625307D01*
X782198Y625307D01*
X785307Y622198D01*
X785307Y617802D01*
X782198Y614693D01*
X777802Y614693D01*
G37*
%LPD*%
%LPC*%
G36*
X364802Y773781D02*
X364802Y773781D01*
X361693Y776890D01*
X361693Y781286D01*
X364802Y784395D01*
X369198Y784395D01*
X372307Y781286D01*
X372307Y776890D01*
X369198Y773781D01*
X364802Y773781D01*
G37*
%LPD*%
%LPC*%
G36*
X593802Y783693D02*
X593802Y783693D01*
X590693Y786802D01*
X590693Y791198D01*
X593802Y794307D01*
X598198Y794307D01*
X601307Y791198D01*
X601307Y786802D01*
X598198Y783693D01*
X593802Y783693D01*
G37*
%LPD*%
%LPC*%
G36*
X712802Y784693D02*
X712802Y784693D01*
X709693Y787802D01*
X709693Y792198D01*
X712802Y795307D01*
X717198Y795307D01*
X720307Y792198D01*
X720307Y787802D01*
X717198Y784693D01*
X712802Y784693D01*
G37*
%LPD*%
%LPC*%
G36*
X550802Y599693D02*
X550802Y599693D01*
X547693Y602802D01*
X547693Y607198D01*
X550802Y610307D01*
X555198Y610307D01*
X558307Y607198D01*
X558307Y602802D01*
X555198Y599693D01*
X550802Y599693D01*
G37*
%LPD*%
%LPC*%
G36*
X797802Y584693D02*
X797802Y584693D01*
X794693Y587802D01*
X794693Y592198D01*
X797802Y595307D01*
X802198Y595307D01*
X805307Y592198D01*
X805307Y587802D01*
X802198Y584693D01*
X797802Y584693D01*
G37*
%LPD*%
%LPC*%
G36*
X707802Y584693D02*
X707802Y584693D01*
X704693Y587802D01*
X704693Y592198D01*
X707802Y595307D01*
X712198Y595307D01*
X715307Y592198D01*
X715307Y587802D01*
X712198Y584693D01*
X707802Y584693D01*
G37*
%LPD*%
%LPC*%
G36*
X364802Y578693D02*
X364802Y578693D01*
X361693Y581802D01*
X361693Y586198D01*
X364802Y589307D01*
X369198Y589307D01*
X372307Y586198D01*
X372307Y581802D01*
X369198Y578693D01*
X364802Y578693D01*
G37*
%LPD*%
%LPC*%
G36*
X777802Y784693D02*
X777802Y784693D01*
X774693Y787802D01*
X774693Y792198D01*
X777802Y795307D01*
X782198Y795307D01*
X785307Y792198D01*
X785307Y787802D01*
X782198Y784693D01*
X777802Y784693D01*
G37*
%LPD*%
%LPC*%
G36*
X262802Y568693D02*
X262802Y568693D01*
X259693Y571802D01*
X259693Y576198D01*
X262802Y579307D01*
X267198Y579307D01*
X270307Y576198D01*
X270307Y571802D01*
X267198Y568693D01*
X262802Y568693D01*
G37*
%LPD*%
%LPC*%
G36*
X747802Y564693D02*
X747802Y564693D01*
X744693Y567802D01*
X744693Y572198D01*
X747802Y575307D01*
X752198Y575307D01*
X755307Y572198D01*
X755307Y567802D01*
X752198Y564693D01*
X747802Y564693D01*
G37*
%LPD*%
%LPC*%
G36*
X653802Y785693D02*
X653802Y785693D01*
X650693Y788802D01*
X650693Y793198D01*
X653802Y796307D01*
X658198Y796307D01*
X661307Y793198D01*
X661307Y788802D01*
X658198Y785693D01*
X653802Y785693D01*
G37*
%LPD*%
%LPC*%
G36*
X511523Y81523D02*
X511523Y81523D01*
X511523Y90046D01*
X512379Y89911D01*
X513900Y89416D01*
X515325Y88690D01*
X516619Y87750D01*
X517750Y86619D01*
X518690Y85325D01*
X519416Y83900D01*
X519911Y82379D01*
X520046Y81523D01*
X511523Y81523D01*
G37*
%LPD*%
%LPC*%
G36*
X291523Y684523D02*
X291523Y684523D01*
X291523Y693046D01*
X292379Y692911D01*
X293900Y692416D01*
X295325Y691690D01*
X296619Y690750D01*
X297750Y689619D01*
X298690Y688325D01*
X299416Y686900D01*
X299911Y685379D01*
X300046Y684523D01*
X291523Y684523D01*
G37*
%LPD*%
%LPC*%
G36*
X158923Y347623D02*
X158923Y347623D01*
X158923Y356146D01*
X159779Y356011D01*
X161300Y355516D01*
X162725Y354790D01*
X164019Y353850D01*
X165150Y352719D01*
X166090Y351425D01*
X166816Y350000D01*
X167311Y348479D01*
X167446Y347623D01*
X158923Y347623D01*
G37*
%LPD*%
%LPC*%
G36*
X691523Y861523D02*
X691523Y861523D01*
X691523Y870046D01*
X692379Y869911D01*
X693900Y869416D01*
X695325Y868690D01*
X696619Y867750D01*
X697750Y866619D01*
X698690Y865325D01*
X699416Y863900D01*
X699911Y862379D01*
X700046Y861523D01*
X691523Y861523D01*
G37*
%LPD*%
%LPC*%
G36*
X631523Y861523D02*
X631523Y861523D01*
X631523Y870046D01*
X632379Y869911D01*
X633900Y869416D01*
X635325Y868690D01*
X636619Y867750D01*
X637750Y866619D01*
X638690Y865325D01*
X639416Y863900D01*
X639911Y862379D01*
X640046Y861523D01*
X631523Y861523D01*
G37*
%LPD*%
%LPC*%
G36*
X276523Y623523D02*
X276523Y623523D01*
X276523Y632046D01*
X277379Y631911D01*
X278900Y631416D01*
X280325Y630690D01*
X281619Y629750D01*
X282750Y628619D01*
X283690Y627325D01*
X284416Y625900D01*
X284911Y624379D01*
X285046Y623523D01*
X276523Y623523D01*
G37*
%LPD*%
%LPC*%
G36*
X571523Y861523D02*
X571523Y861523D01*
X571523Y870046D01*
X572379Y869911D01*
X573900Y869416D01*
X575325Y868690D01*
X576619Y867750D01*
X577750Y866619D01*
X578690Y865325D01*
X579416Y863900D01*
X579911Y862379D01*
X580046Y861523D01*
X571523Y861523D01*
G37*
%LPD*%
%LPC*%
G36*
X751523Y861523D02*
X751523Y861523D01*
X751523Y870046D01*
X752379Y869911D01*
X753900Y869416D01*
X755325Y868690D01*
X756619Y867750D01*
X757750Y866619D01*
X758690Y865325D01*
X759416Y863900D01*
X759911Y862379D01*
X760046Y861523D01*
X751523Y861523D01*
G37*
%LPD*%
%LPC*%
G36*
X571523Y858477D02*
X571523Y858477D01*
X580046Y858477D01*
X579911Y857621D01*
X579416Y856100D01*
X578690Y854675D01*
X577750Y853381D01*
X576619Y852250D01*
X575325Y851310D01*
X573900Y850584D01*
X572379Y850089D01*
X571523Y849954D01*
X571523Y858477D01*
G37*
%LPD*%
%LPC*%
G36*
X691523Y858477D02*
X691523Y858477D01*
X700046Y858477D01*
X699911Y857621D01*
X699416Y856100D01*
X698690Y854675D01*
X697750Y853381D01*
X696619Y852250D01*
X695325Y851310D01*
X693900Y850584D01*
X692379Y850089D01*
X691523Y849954D01*
X691523Y858477D01*
G37*
%LPD*%
%LPC*%
G36*
X559954Y861523D02*
X559954Y861523D01*
X560089Y862379D01*
X560584Y863900D01*
X561310Y865325D01*
X562250Y866619D01*
X563381Y867750D01*
X564675Y868690D01*
X566100Y869416D01*
X567621Y869911D01*
X568477Y870046D01*
X568477Y861523D01*
X559954Y861523D01*
G37*
%LPD*%
%LPC*%
G36*
X739954Y861523D02*
X739954Y861523D01*
X740089Y862379D01*
X740584Y863900D01*
X741310Y865325D01*
X742250Y866619D01*
X743381Y867750D01*
X744675Y868690D01*
X746100Y869416D01*
X747621Y869911D01*
X748477Y870046D01*
X748477Y861523D01*
X739954Y861523D01*
G37*
%LPD*%
%LPC*%
G36*
X619954Y861523D02*
X619954Y861523D01*
X620089Y862379D01*
X620584Y863900D01*
X621310Y865325D01*
X622250Y866619D01*
X623381Y867750D01*
X624675Y868690D01*
X626100Y869416D01*
X627621Y869911D01*
X628477Y870046D01*
X628477Y861523D01*
X619954Y861523D01*
G37*
%LPD*%
%LPC*%
G36*
X158923Y344577D02*
X158923Y344577D01*
X167446Y344577D01*
X167311Y343721D01*
X166816Y342200D01*
X166090Y340775D01*
X165150Y339481D01*
X164019Y338350D01*
X162725Y337410D01*
X161300Y336684D01*
X159779Y336189D01*
X158923Y336054D01*
X158923Y344577D01*
G37*
%LPD*%
%LPC*%
G36*
X499954Y81523D02*
X499954Y81523D01*
X500089Y82379D01*
X500584Y83900D01*
X501310Y85325D01*
X502250Y86619D01*
X503381Y87750D01*
X504675Y88690D01*
X506100Y89416D01*
X507621Y89911D01*
X508477Y90046D01*
X508477Y81523D01*
X499954Y81523D01*
G37*
%LPD*%
%LPC*%
G36*
X631523Y858477D02*
X631523Y858477D01*
X640046Y858477D01*
X639911Y857621D01*
X639416Y856100D01*
X638690Y854675D01*
X637750Y853381D01*
X636619Y852250D01*
X635325Y851310D01*
X633900Y850584D01*
X632379Y850089D01*
X631523Y849954D01*
X631523Y858477D01*
G37*
%LPD*%
%LPC*%
G36*
X147354Y347623D02*
X147354Y347623D01*
X147489Y348479D01*
X147984Y350000D01*
X148710Y351425D01*
X149650Y352719D01*
X150781Y353850D01*
X152075Y354790D01*
X153500Y355516D01*
X155021Y356011D01*
X155877Y356146D01*
X155877Y347623D01*
X147354Y347623D01*
G37*
%LPD*%
%LPC*%
G36*
X751523Y858477D02*
X751523Y858477D01*
X760046Y858477D01*
X759911Y857621D01*
X759416Y856100D01*
X758690Y854675D01*
X757750Y853381D01*
X756619Y852250D01*
X755325Y851310D01*
X753900Y850584D01*
X752379Y850089D01*
X751523Y849954D01*
X751523Y858477D01*
G37*
%LPD*%
%LPC*%
G36*
X679954Y861523D02*
X679954Y861523D01*
X680089Y862379D01*
X680584Y863900D01*
X681310Y865325D01*
X682250Y866619D01*
X683381Y867750D01*
X684675Y868690D01*
X686100Y869416D01*
X687621Y869911D01*
X688477Y870046D01*
X688477Y861523D01*
X679954Y861523D01*
G37*
%LPD*%
%LPC*%
G36*
X279954Y684523D02*
X279954Y684523D01*
X280089Y685379D01*
X280584Y686900D01*
X281310Y688325D01*
X282250Y689619D01*
X283381Y690750D01*
X284675Y691690D01*
X286100Y692416D01*
X287621Y692911D01*
X288477Y693046D01*
X288477Y684523D01*
X279954Y684523D01*
G37*
%LPD*%
%LPC*%
G36*
X276523Y620477D02*
X276523Y620477D01*
X285046Y620477D01*
X284911Y619621D01*
X284416Y618100D01*
X283690Y616675D01*
X282750Y615381D01*
X281619Y614250D01*
X280325Y613310D01*
X278900Y612584D01*
X277379Y612089D01*
X276523Y611954D01*
X276523Y620477D01*
G37*
%LPD*%
%LPC*%
G36*
X291523Y681477D02*
X291523Y681477D01*
X300046Y681477D01*
X299911Y680621D01*
X299416Y679100D01*
X298690Y677675D01*
X297750Y676381D01*
X296619Y675250D01*
X295325Y674310D01*
X293900Y673584D01*
X292379Y673089D01*
X291523Y672954D01*
X291523Y681477D01*
G37*
%LPD*%
%LPC*%
G36*
X511523Y78477D02*
X511523Y78477D01*
X520046Y78477D01*
X519911Y77621D01*
X519416Y76100D01*
X518690Y74675D01*
X517750Y73381D01*
X516619Y72250D01*
X515325Y71310D01*
X513900Y70584D01*
X512379Y70089D01*
X511523Y69954D01*
X511523Y78477D01*
G37*
%LPD*%
%LPC*%
G36*
X264954Y623523D02*
X264954Y623523D01*
X265089Y624379D01*
X265584Y625900D01*
X266310Y627325D01*
X267250Y628619D01*
X268381Y629750D01*
X269675Y630690D01*
X271100Y631416D01*
X272621Y631911D01*
X273477Y632046D01*
X273477Y623523D01*
X264954Y623523D01*
G37*
%LPD*%
%LPC*%
G36*
X627621Y850089D02*
X627621Y850089D01*
X626100Y850584D01*
X624675Y851310D01*
X623381Y852250D01*
X622250Y853381D01*
X621310Y854675D01*
X620584Y856100D01*
X620089Y857621D01*
X619954Y858477D01*
X628477Y858477D01*
X628477Y849954D01*
X627621Y850089D01*
G37*
%LPD*%
%LPC*%
G36*
X507621Y70089D02*
X507621Y70089D01*
X506100Y70584D01*
X504675Y71310D01*
X503381Y72250D01*
X502250Y73381D01*
X501310Y74675D01*
X500584Y76100D01*
X500089Y77621D01*
X499954Y78477D01*
X508477Y78477D01*
X508477Y69954D01*
X507621Y70089D01*
G37*
%LPD*%
%LPC*%
G36*
X272621Y612089D02*
X272621Y612089D01*
X271100Y612584D01*
X269675Y613310D01*
X268381Y614250D01*
X267250Y615381D01*
X266310Y616675D01*
X265584Y618100D01*
X265089Y619621D01*
X264954Y620477D01*
X273477Y620477D01*
X273477Y611954D01*
X272621Y612089D01*
G37*
%LPD*%
%LPC*%
G36*
X287621Y673089D02*
X287621Y673089D01*
X286100Y673584D01*
X284675Y674310D01*
X283381Y675250D01*
X282250Y676381D01*
X281310Y677675D01*
X280584Y679100D01*
X280089Y680621D01*
X279954Y681477D01*
X288477Y681477D01*
X288477Y672954D01*
X287621Y673089D01*
G37*
%LPD*%
%LPC*%
G36*
X747621Y850089D02*
X747621Y850089D01*
X746100Y850584D01*
X744675Y851310D01*
X743381Y852250D01*
X742250Y853381D01*
X741310Y854675D01*
X740584Y856100D01*
X740089Y857621D01*
X739954Y858477D01*
X748477Y858477D01*
X748477Y849954D01*
X747621Y850089D01*
G37*
%LPD*%
%LPC*%
G36*
X567621Y850089D02*
X567621Y850089D01*
X566100Y850584D01*
X564675Y851310D01*
X563381Y852250D01*
X562250Y853381D01*
X561310Y854675D01*
X560584Y856100D01*
X560089Y857621D01*
X559954Y858477D01*
X568477Y858477D01*
X568477Y849954D01*
X567621Y850089D01*
G37*
%LPD*%
%LPC*%
G36*
X687621Y850089D02*
X687621Y850089D01*
X686100Y850584D01*
X684675Y851310D01*
X683381Y852250D01*
X682250Y853381D01*
X681310Y854675D01*
X680584Y856100D01*
X680089Y857621D01*
X679954Y858477D01*
X688477Y858477D01*
X688477Y849954D01*
X687621Y850089D01*
G37*
%LPD*%
%LPC*%
G36*
X155021Y336189D02*
X155021Y336189D01*
X153500Y336684D01*
X152075Y337410D01*
X150781Y338350D01*
X149650Y339481D01*
X148710Y340775D01*
X147984Y342200D01*
X147489Y343721D01*
X147354Y344577D01*
X155877Y344577D01*
X155877Y336054D01*
X155021Y336189D01*
G37*
%LPD*%
%LPC*%
G36*
X512923Y449623D02*
X512923Y449623D01*
X512923Y457056D01*
X514049Y456832D01*
X515701Y456147D01*
X517189Y455153D01*
X518453Y453889D01*
X519447Y452401D01*
X520132Y450749D01*
X520356Y449623D01*
X512923Y449623D01*
G37*
%LPD*%
%LPC*%
G36*
X843123Y525823D02*
X843123Y525823D01*
X843123Y533256D01*
X844249Y533032D01*
X845901Y532347D01*
X847389Y531353D01*
X848653Y530089D01*
X849647Y528601D01*
X850332Y526949D01*
X850556Y525823D01*
X843123Y525823D01*
G37*
%LPD*%
%LPC*%
G36*
X817723Y373423D02*
X817723Y373423D01*
X817723Y380856D01*
X818849Y380632D01*
X820501Y379947D01*
X821989Y378953D01*
X823253Y377689D01*
X824247Y376201D01*
X824932Y374549D01*
X825156Y373423D01*
X817723Y373423D01*
G37*
%LPD*%
%LPC*%
G36*
X832644Y525823D02*
X832644Y525823D01*
X832868Y526949D01*
X833553Y528601D01*
X834547Y530089D01*
X835811Y531353D01*
X837299Y532347D01*
X838951Y533032D01*
X840077Y533256D01*
X840077Y525823D01*
X832644Y525823D01*
G37*
%LPD*%
%LPC*%
G36*
X817723Y370377D02*
X817723Y370377D01*
X825156Y370377D01*
X824932Y369251D01*
X824247Y367599D01*
X823253Y366111D01*
X821989Y364847D01*
X820501Y363853D01*
X818849Y363168D01*
X817723Y362944D01*
X817723Y370377D01*
G37*
%LPD*%
%LPC*%
G36*
X843123Y522777D02*
X843123Y522777D01*
X850556Y522777D01*
X850332Y521651D01*
X849647Y519999D01*
X848653Y518511D01*
X847389Y517247D01*
X845901Y516253D01*
X844249Y515568D01*
X843123Y515344D01*
X843123Y522777D01*
G37*
%LPD*%
%LPC*%
G36*
X807244Y373423D02*
X807244Y373423D01*
X807468Y374549D01*
X808153Y376201D01*
X809147Y377689D01*
X810411Y378953D01*
X811899Y379947D01*
X813551Y380632D01*
X814677Y380856D01*
X814677Y373423D01*
X807244Y373423D01*
G37*
%LPD*%
%LPC*%
G36*
X502444Y449623D02*
X502444Y449623D01*
X502668Y450749D01*
X503353Y452401D01*
X504347Y453889D01*
X505611Y455153D01*
X507099Y456147D01*
X508751Y456832D01*
X509877Y457056D01*
X509877Y449623D01*
X502444Y449623D01*
G37*
%LPD*%
%LPC*%
G36*
X512923Y446577D02*
X512923Y446577D01*
X520356Y446577D01*
X520132Y445451D01*
X519447Y443799D01*
X518453Y442311D01*
X517189Y441047D01*
X515701Y440053D01*
X514049Y439368D01*
X512923Y439144D01*
X512923Y446577D01*
G37*
%LPD*%
%LPC*%
G36*
X813551Y363168D02*
X813551Y363168D01*
X811899Y363853D01*
X810411Y364847D01*
X809147Y366111D01*
X808153Y367599D01*
X807468Y369251D01*
X807244Y370377D01*
X814677Y370377D01*
X814677Y362944D01*
X813551Y363168D01*
G37*
%LPD*%
%LPC*%
G36*
X838951Y515568D02*
X838951Y515568D01*
X837299Y516253D01*
X835811Y517247D01*
X834547Y518511D01*
X833553Y519999D01*
X832868Y521651D01*
X832644Y522777D01*
X840077Y522777D01*
X840077Y515344D01*
X838951Y515568D01*
G37*
%LPD*%
%LPC*%
G36*
X508751Y439368D02*
X508751Y439368D01*
X507099Y440053D01*
X505611Y441047D01*
X504347Y442311D01*
X503353Y443799D01*
X502668Y445451D01*
X502444Y446577D01*
X509877Y446577D01*
X509877Y439144D01*
X508751Y439368D01*
G37*
%LPD*%
%LPC*%
G36*
X511399Y448099D02*
X511399Y448099D01*
X511399Y448101D01*
X511401Y448101D01*
X511401Y448099D01*
X511399Y448099D01*
G37*
%LPD*%
%LPC*%
G36*
X417799Y132199D02*
X417799Y132199D01*
X417799Y132201D01*
X417801Y132201D01*
X417801Y132199D01*
X417799Y132199D01*
G37*
%LPD*%
%LPC*%
G36*
X816199Y371899D02*
X816199Y371899D01*
X816199Y371901D01*
X816201Y371901D01*
X816201Y371899D01*
X816199Y371899D01*
G37*
%LPD*%
%LPC*%
G36*
X841599Y524299D02*
X841599Y524299D01*
X841599Y524301D01*
X841601Y524301D01*
X841601Y524299D01*
X841599Y524299D01*
G37*
%LPD*%
%LPC*%
G36*
X464799Y162199D02*
X464799Y162199D01*
X464799Y162201D01*
X464801Y162201D01*
X464801Y162199D01*
X464799Y162199D01*
G37*
%LPD*%
%LPC*%
G36*
X509999Y79999D02*
X509999Y79999D01*
X509999Y80001D01*
X510001Y80001D01*
X510001Y79999D01*
X509999Y79999D01*
G37*
%LPD*%
%LPC*%
G36*
X157399Y346099D02*
X157399Y346099D01*
X157399Y346101D01*
X157401Y346101D01*
X157401Y346099D01*
X157399Y346099D01*
G37*
%LPD*%
%LPC*%
G36*
X274999Y621999D02*
X274999Y621999D01*
X274999Y622001D01*
X275001Y622001D01*
X275001Y621999D01*
X274999Y621999D01*
G37*
%LPD*%
%LPC*%
G36*
X289999Y682999D02*
X289999Y682999D01*
X289999Y683001D01*
X290001Y683001D01*
X290001Y682999D01*
X289999Y682999D01*
G37*
%LPD*%
%LPC*%
G36*
X569999Y859999D02*
X569999Y859999D01*
X569999Y860001D01*
X570001Y860001D01*
X570001Y859999D01*
X569999Y859999D01*
G37*
%LPD*%
%LPC*%
G36*
X629999Y859999D02*
X629999Y859999D01*
X629999Y860001D01*
X630001Y860001D01*
X630001Y859999D01*
X629999Y859999D01*
G37*
%LPD*%
%LPC*%
G36*
X689999Y859999D02*
X689999Y859999D01*
X689999Y860001D01*
X690001Y860001D01*
X690001Y859999D01*
X689999Y859999D01*
G37*
%LPD*%
%LPC*%
G36*
X812799Y41299D02*
X812799Y41299D01*
X812799Y41301D01*
X812801Y41301D01*
X812801Y41299D01*
X812799Y41299D01*
G37*
%LPD*%
%LPC*%
G36*
X749999Y859999D02*
X749999Y859999D01*
X749999Y860001D01*
X750001Y860001D01*
X750001Y859999D01*
X749999Y859999D01*
G37*
%LPD*%
%LPC*%
G36*
X850899Y898599D02*
X850899Y898599D01*
X850899Y898601D01*
X850901Y898601D01*
X850901Y898599D01*
X850899Y898599D01*
G37*
%LPD*%
D10*
X417800Y192200D03*
X417800Y132200D03*
X464800Y162200D03*
D11*
X807900Y226100D03*
X744800Y199100D03*
X551700Y117100D03*
X73600Y378100D03*
X230500Y276100D03*
X157400Y346100D03*
X177700Y797300D03*
X152300Y797300D03*
D12*
X841600Y524300D03*
X816200Y524300D03*
X790800Y524300D03*
X765400Y524300D03*
X740000Y524300D03*
X714600Y524300D03*
X689200Y524300D03*
X663800Y524300D03*
X638400Y524300D03*
X613000Y524300D03*
X587600Y524300D03*
X562200Y524300D03*
X536800Y524300D03*
X511400Y524300D03*
X511400Y498900D03*
X511400Y473500D03*
X511400Y448100D03*
X511400Y397300D03*
X511400Y371900D03*
X536800Y371900D03*
X562200Y371900D03*
X587600Y371900D03*
X613000Y371900D03*
X638400Y371900D03*
X663800Y371900D03*
X689200Y371900D03*
X714600Y371900D03*
X740000Y371900D03*
X765400Y371900D03*
X790800Y371900D03*
X816200Y371900D03*
X841600Y371900D03*
X816200Y397300D03*
X511400Y422700D03*
D13*
X50800Y898600D03*
X812800Y41300D03*
X850900Y898600D03*
X76200Y41300D03*
D11*
X290000Y740000D03*
X230000Y820000D03*
X290000Y683000D03*
X510000Y80000D03*
X419000Y238000D03*
X570000Y860000D03*
X595400Y860000D03*
X630000Y860000D03*
X655400Y860000D03*
X690000Y860000D03*
X715400Y860000D03*
X750000Y860000D03*
X775400Y860000D03*
X245000Y622000D03*
X275000Y622000D03*
D14*
X367000Y584000D03*
X710000Y590000D03*
X356000Y719000D03*
X265000Y574000D03*
X596000Y614000D03*
X663000Y626000D03*
X165000Y769000D03*
X144000Y698000D03*
X192000Y769000D03*
X192000Y681000D03*
X94000Y115000D03*
X103000Y115000D03*
X112000Y115000D03*
X218000Y113000D03*
X228000Y113000D03*
X238000Y113000D03*
X221000Y246000D03*
X231000Y246000D03*
X241000Y246000D03*
X141000Y246000D03*
X131000Y246000D03*
X121000Y246000D03*
X166000Y302000D03*
X320000Y704794D03*
X148000Y622000D03*
X149000Y631000D03*
X147000Y292000D03*
X180000Y640000D03*
X110000Y760000D03*
X211000Y623000D03*
X193000Y624000D03*
X177000Y624000D03*
X148000Y574000D03*
X148000Y564000D03*
X147000Y553000D03*
X225000Y572624D03*
X225000Y537000D03*
X223000Y552000D03*
X266612Y564912D03*
X271000Y488000D03*
X257000Y488000D03*
X842000Y354000D03*
X556000Y589000D03*
X557000Y664000D03*
X666000Y163000D03*
X656000Y162000D03*
X656000Y153000D03*
X666000Y153000D03*
X666000Y143000D03*
X656000Y143000D03*
X646000Y101000D03*
X646000Y89000D03*
X645000Y76000D03*
X645000Y64000D03*
X645000Y51000D03*
X608000Y102000D03*
X619000Y102000D03*
X630000Y102000D03*
X503000Y280000D03*
X372000Y749000D03*
X369000Y764000D03*
X418000Y700000D03*
X418000Y683000D03*
X379000Y712000D03*
X663000Y639000D03*
X661000Y719000D03*
X529000Y319000D03*
X639000Y279000D03*
X535000Y241000D03*
X365000Y49000D03*
X740000Y156000D03*
X741000Y636000D03*
X812000Y698000D03*
X778000Y698000D03*
X757000Y647000D03*
X813000Y648000D03*
X833000Y673000D03*
X613000Y317000D03*
X741000Y319000D03*
X700000Y323576D03*
X725000Y324000D03*
X760000Y320000D03*
X549000Y280000D03*
X573000Y314000D03*
X594000Y319000D03*
X366000Y22000D03*
X601000Y236000D03*
X807000Y306000D03*
X553000Y605000D03*
X556000Y685000D03*
X367000Y779088D03*
X780000Y790000D03*
X715000Y790000D03*
X656000Y791000D03*
X596000Y789000D03*
X630000Y301000D03*
X544000Y235000D03*
X742000Y678000D03*
X375000Y13942D03*
X674751Y173424D03*
X133829Y207664D03*
X86000Y101274D03*
X205944Y161702D03*
X149965Y177526D03*
X370000Y66000D03*
X697000Y159256D03*
X719000Y94000D03*
X518000Y345000D03*
X780000Y180000D03*
X750000Y570000D03*
X794000Y734000D03*
X779000Y660000D03*
X780000Y620000D03*
X800000Y590000D03*
X740000Y690000D03*
M02*
