G04 EAGLE Gerber RS-274X export*
G75*
%MOMM*%
%FSLAX34Y34*%
%LPD*%
%INSolderpaste Top*%
%IPPOS*%
%AMOC8*
5,1,8,0,0,1.08239X$1,22.5*%
G01*
%ADD10R,1.000000X1.100000*%
%ADD11R,1.800000X1.600000*%
%ADD12R,1.100000X1.000000*%
%ADD13R,1.270000X2.060000*%
%ADD14R,1.600000X1.800000*%
%ADD15R,1.600000X2.000000*%
%ADD16R,1.200000X0.800000*%
%ADD17R,0.800000X1.200000*%
%ADD18R,0.889000X0.304800*%
%ADD19R,1.651000X2.844800*%
%ADD20R,0.600000X2.200000*%
%ADD21R,1.000000X0.450000*%
%ADD22R,0.450000X1.000000*%
%ADD23R,0.812800X0.406400*%
%ADD24R,1.397000X0.279400*%
%ADD25R,2.200000X0.600000*%
%ADD26R,1.300000X1.600000*%
%ADD27R,1.200000X0.600000*%
%ADD28R,1.200000X0.550000*%

G36*
X191865Y182475D02*
X191865Y182475D01*
X191867Y182474D01*
X191910Y182494D01*
X191954Y182512D01*
X191954Y182514D01*
X191956Y182515D01*
X191989Y182600D01*
X191989Y195332D01*
X191988Y195334D01*
X191989Y195336D01*
X191969Y195379D01*
X191951Y195423D01*
X191949Y195423D01*
X191948Y195425D01*
X191863Y195458D01*
X176337Y195458D01*
X176335Y195457D01*
X176333Y195458D01*
X176290Y195438D01*
X176246Y195420D01*
X176246Y195418D01*
X176244Y195417D01*
X176211Y195332D01*
X176211Y182600D01*
X176212Y182598D01*
X176211Y182596D01*
X176231Y182553D01*
X176249Y182509D01*
X176251Y182509D01*
X176252Y182507D01*
X176337Y182474D01*
X191863Y182474D01*
X191865Y182475D01*
G37*
G36*
X191865Y167743D02*
X191865Y167743D01*
X191867Y167742D01*
X191910Y167762D01*
X191954Y167780D01*
X191954Y167782D01*
X191956Y167783D01*
X191989Y167868D01*
X191989Y180600D01*
X191988Y180602D01*
X191989Y180604D01*
X191969Y180647D01*
X191951Y180691D01*
X191949Y180691D01*
X191948Y180693D01*
X191863Y180726D01*
X176337Y180726D01*
X176335Y180725D01*
X176333Y180726D01*
X176290Y180706D01*
X176246Y180688D01*
X176246Y180686D01*
X176244Y180685D01*
X176211Y180600D01*
X176211Y167868D01*
X176212Y167866D01*
X176211Y167864D01*
X176231Y167821D01*
X176249Y167777D01*
X176251Y167777D01*
X176252Y167775D01*
X176337Y167742D01*
X191863Y167742D01*
X191865Y167743D01*
G37*
D10*
X217900Y729000D03*
X217900Y712000D03*
D11*
X286600Y160400D03*
X286600Y132400D03*
D12*
X407400Y683100D03*
X390400Y683100D03*
X406500Y700100D03*
X389500Y700100D03*
X342400Y746900D03*
X359400Y746900D03*
X342300Y763900D03*
X359300Y763900D03*
D10*
X710900Y136800D03*
X710900Y119800D03*
D11*
X616100Y146400D03*
X616100Y118400D03*
D13*
X701650Y94400D03*
X666550Y94400D03*
X702150Y62400D03*
X667050Y62400D03*
D12*
X618900Y182100D03*
X601900Y182100D03*
X711000Y152900D03*
X728000Y152900D03*
X728100Y183100D03*
X711100Y183100D03*
X583200Y589100D03*
X566200Y589100D03*
D14*
X169600Y222600D03*
X197600Y222600D03*
D11*
X232400Y201800D03*
X232400Y229800D03*
D14*
X145000Y143600D03*
X173000Y143600D03*
D11*
X228400Y128200D03*
X228400Y156200D03*
X102600Y156600D03*
X102600Y128600D03*
D15*
X747300Y123000D03*
X747300Y81000D03*
D10*
X266000Y151000D03*
X266000Y168000D03*
D11*
X256100Y88000D03*
X256100Y60000D03*
D12*
X299100Y75000D03*
X282100Y75000D03*
X298200Y58000D03*
X281200Y58000D03*
X530700Y345000D03*
X547700Y345000D03*
X530600Y329000D03*
X547600Y329000D03*
D10*
X515000Y279500D03*
X515000Y262500D03*
X515000Y192400D03*
X515000Y209400D03*
X554000Y191300D03*
X554000Y208300D03*
X351000Y49200D03*
X351000Y66200D03*
D16*
X245100Y695800D03*
X245100Y677800D03*
D10*
X207000Y149900D03*
X207000Y132900D03*
D12*
X619000Y166000D03*
X602000Y166000D03*
X728100Y168000D03*
X711100Y168000D03*
D10*
X695000Y183800D03*
X695000Y200800D03*
D12*
X763300Y174000D03*
X746300Y174000D03*
D16*
X244900Y729400D03*
X244900Y711400D03*
D10*
X85900Y181100D03*
X85900Y198100D03*
X265900Y188000D03*
X265900Y205000D03*
D11*
X781900Y196300D03*
X781900Y224300D03*
D17*
X566000Y606100D03*
X584000Y606100D03*
D14*
X522800Y146100D03*
X550800Y146100D03*
D10*
X125900Y181200D03*
X125900Y164200D03*
X124900Y145300D03*
X124900Y128300D03*
X249000Y134100D03*
X249000Y151100D03*
D18*
X640980Y167680D03*
X640980Y162680D03*
X640980Y157680D03*
X640980Y152680D03*
X640980Y147680D03*
X640980Y142680D03*
X640980Y137680D03*
X640980Y132680D03*
X682480Y132680D03*
X682480Y137680D03*
X682480Y142680D03*
X682480Y147680D03*
X682480Y152680D03*
X682480Y157680D03*
X682480Y162680D03*
X682480Y167680D03*
D19*
X661300Y149900D03*
D20*
X178150Y750600D03*
X178150Y698600D03*
X190850Y750600D03*
X165450Y750600D03*
X152750Y750600D03*
X190850Y698600D03*
X165450Y698600D03*
X152750Y698600D03*
D21*
X555200Y228950D03*
X555200Y235450D03*
X555200Y241950D03*
X555200Y248450D03*
X514200Y248450D03*
X514200Y241950D03*
X514200Y235450D03*
X514200Y228950D03*
D22*
X315450Y36800D03*
X321950Y36800D03*
X328450Y36800D03*
X334950Y36800D03*
X334950Y77800D03*
X328450Y77800D03*
X321950Y77800D03*
X315450Y77800D03*
D23*
X370400Y691500D03*
X370400Y698000D03*
X370400Y704500D03*
X370400Y711000D03*
X370400Y717500D03*
X370400Y724000D03*
X328900Y724000D03*
X328900Y717500D03*
X328900Y711000D03*
X328900Y704500D03*
X328900Y698000D03*
X328900Y691500D03*
D24*
X205944Y164087D03*
X205944Y169091D03*
X205944Y174094D03*
X205944Y179098D03*
X205944Y184102D03*
X205944Y189106D03*
X205944Y194110D03*
X205944Y199113D03*
X162256Y199113D03*
X162256Y194110D03*
X162256Y189106D03*
X162256Y184102D03*
X162256Y179098D03*
X162256Y174094D03*
X162256Y169091D03*
X162256Y164087D03*
D16*
X810400Y317400D03*
X810400Y335400D03*
D12*
X794900Y351500D03*
X811900Y351500D03*
D25*
X678700Y613850D03*
X612100Y613850D03*
X678700Y601150D03*
X678700Y626550D03*
X678700Y639250D03*
X612100Y601150D03*
X612100Y626550D03*
X612100Y639250D03*
D12*
X585700Y664500D03*
X568700Y664500D03*
D17*
X568700Y684400D03*
X586700Y684400D03*
D25*
X677300Y693850D03*
X610700Y693850D03*
X677300Y681150D03*
X677300Y706550D03*
X677300Y719250D03*
X610700Y681150D03*
X610700Y706550D03*
X610700Y719250D03*
D26*
X651500Y279000D03*
X670500Y279000D03*
D14*
X671000Y302000D03*
X643000Y302000D03*
D11*
X596000Y835000D03*
X596000Y807000D03*
X656000Y834000D03*
X656000Y806000D03*
X716000Y834000D03*
X716000Y806000D03*
X777000Y834000D03*
X777000Y806000D03*
X127000Y201000D03*
X127000Y229000D03*
D27*
X767000Y710750D03*
X767000Y698050D03*
X767000Y685350D03*
X767000Y672650D03*
X767000Y659950D03*
X767000Y647250D03*
X767000Y634550D03*
X823000Y634550D03*
X823000Y647250D03*
X823000Y659950D03*
X823000Y672650D03*
X823000Y685350D03*
X823000Y698050D03*
X823000Y710750D03*
D10*
X741000Y666500D03*
X741000Y649500D03*
X180000Y668500D03*
X180000Y651500D03*
D12*
X138500Y760000D03*
X121500Y760000D03*
X570500Y236000D03*
X587500Y236000D03*
X345500Y22000D03*
X328500Y22000D03*
D23*
X275000Y546700D03*
X275000Y553200D03*
X275000Y559700D03*
X275000Y566200D03*
X275000Y572700D03*
X275000Y579200D03*
X233500Y579200D03*
X233500Y572700D03*
X233500Y566200D03*
X233500Y559700D03*
X233500Y553200D03*
X233500Y546700D03*
D10*
X278000Y502500D03*
X278000Y519500D03*
X259000Y502500D03*
X259000Y519500D03*
X210000Y593500D03*
X210000Y610500D03*
X193000Y593500D03*
X193000Y610500D03*
D17*
X281000Y710000D03*
X299000Y710000D03*
D28*
X160000Y573500D03*
X160000Y564000D03*
X160000Y554500D03*
X186000Y554500D03*
X186000Y564000D03*
X186000Y573500D03*
D12*
X181500Y540000D03*
X164500Y540000D03*
D10*
X176000Y593500D03*
X176000Y610500D03*
D17*
X389000Y726000D03*
X407000Y726000D03*
X288000Y584000D03*
X306000Y584000D03*
D16*
X540000Y569000D03*
X540000Y551000D03*
X487000Y371000D03*
X487000Y389000D03*
D17*
X717000Y614000D03*
X699000Y614000D03*
X713000Y695000D03*
X695000Y695000D03*
D10*
X613000Y329500D03*
X613000Y346500D03*
X690000Y331500D03*
X690000Y348500D03*
X713000Y332500D03*
X713000Y349500D03*
X740000Y331500D03*
X740000Y348500D03*
X760000Y331500D03*
X760000Y348500D03*
X593000Y331500D03*
X593000Y348500D03*
X573000Y327500D03*
X573000Y344500D03*
X549000Y293500D03*
X549000Y310500D03*
M02*
